<svg xmlns="http://www.w3.org/2000/svg" version="1.1" xmlns:xlink="http://www.w3.org/1999/xlink" xmlns:svgjs="http://svgjs.dev/svgjs" width="2000" height="2250" viewBox="0 0 2000 2250"><g transform="matrix(1,0,0,1,3.410605131648481e-13,0)"><svg viewBox="0 0 320 360" data-background-color="#ffffff" preserveAspectRatio="xMidYMid meet" height="2250" width="2000" xmlns="http://www.w3.org/2000/svg" xmlns:xlink="http://www.w3.org/1999/xlink"><g id="tight-bounds" transform="matrix(1,0,0,1,0,0)"><svg viewBox="0 0 320 360" height="360" width="320"><g><svg></svg></g><g><svg viewBox="0 0 320 360" height="360" width="320"><g><path xmlns="http://www.w3.org/2000/svg" d="M320 204.145c-0.08-8.44-5.414-15.128-5.494-23.568-0.04-8.44 5.215-18.631 5.136-27.071-2.667-8.002-9.833-12.7-12.501-20.702-2.667-8.002-0.836-19.348-3.463-27.35-5.016-6.808-13.297-9.037-18.274-15.805-5.016-6.808-6.768-18.154-11.744-24.921-6.847-4.897-15.407-4.499-22.294-9.396-6.847-4.897-12.023-15.168-18.91-20.065-8.042-2.548-16.044 0.518-24.086-2.07-8.042-2.548-16.123-10.709-24.165-13.257-8.44 0.08-15.128 5.414-23.568 5.494-8.44 0.04-18.631-5.215-27.071-5.135-8.002 2.667-12.7 9.833-20.702 12.5-8.002 2.667-19.348 0.836-27.35 3.504-6.808 5.016-9.037 13.297-15.805 18.273-6.808 5.016-18.154 6.768-24.922 11.784-4.897 6.847-4.499 15.407-9.395 22.294-4.897 6.847-15.168 12.023-20.065 18.91-2.548 8.042 0.478 16.044-2.07 24.086-2.548 8.042-10.709 16.123-13.257 24.165 0.04 8.44 5.414 15.128 5.494 23.568 0.04 8.44-5.215 18.631-5.136 27.071 2.667 8.002 9.833 12.7 12.501 20.702 2.667 8.002 0.836 19.348 3.503 27.35 5.016 6.808 13.297 9.037 18.273 15.845 5.016 6.808 6.768 18.154 11.745 24.921 6.847 4.897 15.407 4.499 22.294 9.396 6.847 4.897 12.023 15.168 18.91 20.065 8.042 2.548 16.044-0.478 24.086 2.07 8.042 2.548 16.123 10.709 24.165 13.257 8.44-0.08 15.128-5.414 23.568-5.494 8.44-0.04 18.631 5.215 27.071 5.135 8.002-2.667 12.7-9.833 20.702-12.5 8.002-2.667 19.348-0.836 27.35-3.504 6.808-5.016 9.037-13.297 15.845-18.273 6.808-5.016 18.154-6.768 24.921-11.744 4.897-6.847 4.499-15.407 9.396-22.294 4.897-6.847 15.168-12.023 20.064-18.91 2.548-8.042-0.478-16.044 2.071-24.086 2.468-8.121 10.63-16.203 13.177-24.245zM305.987 227.395c-3.623 7.126-12.501 13.456-16.164 20.582-3.623 7.126-2.03 15.088-5.653 22.215-5.653 5.653-16.044 8.918-21.737 14.57-5.653 5.653-6.569 13.735-12.261 19.388-7.126 3.623-18.034 3.503-25.161 7.166-7.126 3.623-10.51 11.028-17.636 14.651-7.922 1.234-18.233-2.229-26.156-0.996-7.922 1.234-13.416 7.246-21.299 8.48-7.922-1.234-16.641-7.763-24.563-8.997-7.922-1.274-14.969 2.747-22.891 1.473-7.126-3.623-13.456-12.54-20.582-16.163-7.126-3.623-15.088-2.03-22.255-5.654-5.653-5.653-8.918-16.044-14.571-21.736-5.653-5.653-13.735-6.609-19.387-12.262-3.623-7.126-3.503-18.034-7.166-25.161-3.623-7.126-11.028-10.51-14.651-17.636-1.234-7.922 2.229-18.233 0.995-26.156-1.274-7.922-7.246-13.416-8.479-21.298 1.274-7.922 7.763-16.641 8.997-24.564 1.234-7.922-2.747-14.969-1.473-22.891 3.623-7.126 12.54-13.456 16.163-20.582 3.623-7.126 2.03-15.088 5.653-22.254 5.653-5.653 16.044-8.918 21.737-14.571 5.653-5.653 6.609-13.735 12.262-19.388 7.126-3.623 18.034-3.503 25.16-7.166 7.126-3.623 10.51-11.028 17.637-14.651 7.922-1.234 18.233 2.229 26.155 0.996 7.922-1.234 13.416-7.246 21.299-8.48 7.922 1.234 16.641 7.763 24.564 8.997 7.922 1.274 14.969-2.747 22.891-1.473 7.126 3.623 13.456 12.54 20.582 16.163 7.126 3.623 15.088 2.03 22.254 5.654 5.653 5.653 8.918 16.044 14.571 21.736 5.653 5.653 13.735 6.609 19.388 12.262 3.623 7.126 3.503 18.034 7.166 25.161 3.623 7.126 11.028 10.51 14.65 17.636 1.274 7.922-2.229 18.233-0.995 26.156 1.234 7.922 7.246 13.416 8.48 21.298-1.234 7.922-7.763 16.641-8.997 24.564-1.234 7.922 2.747 15.009 1.473 22.931z" fill="#001f3f" fill-rule="nonzero" stroke="none" stroke-width="1" stroke-linecap="butt" stroke-linejoin="miter" stroke-miterlimit="10" stroke-dasharray="" stroke-dashoffset="0" font-family="none" font-weight="none" font-size="none" text-anchor="none" style="mix-blend-mode: normal" data-fill-palette-color="tertiary"></path></g><g transform="matrix(1,0,0,1,64.51479649670566,80.99999999999999)"><svg viewBox="0 0 190.9704070065887 198.00000000000003" height="198.00000000000003" width="190.9704070065887"><g><svg viewBox="0 0 224 232.2454075225897" height="198.00000000000003" width="190.9704070065887"><g transform="matrix(1,0,0,1,0,150.7501033809612)"><svg viewBox="0 0 224 81.49530414162848" height="81.49530414162848" width="224"><g id="textblocktransform"><svg viewBox="0 0 224 81.49530414162848" height="81.49530414162848" width="224" id="textblock"><g><rect width="42.784000000000006" height="4.800250686569833" y="71.24510250406564" fill="#001f3f" data-fill-palette-color="tertiary"></rect><rect width="42.784000000000006" height="4.800250686569833" y="71.24510250406564" x="181.216" fill="#001f3f" data-fill-palette-color="tertiary"></rect></g><g><svg viewBox="0 0 224 53.22905027932961" height="53.22905027932961" width="224"><g transform="matrix(1,0,0,1,0,0)"><svg width="224" viewBox="0.49000000953674316 -48.290000915527344 244.70999145507812 58.150001525878906" height="53.22905027932961" data-palette-color="#39cccc"><path d="M52.49-2.93L52.54-2.78Q52.54-2.39 52.27-2.25 52-2.1 52.15-1.56L52.15-1.56Q51.76-1.51 51.46-1.17 51.17-0.83 50.78-0.83L50.78-0.83Q50.54-0.83 50.39-1.07L50.39-1.07Q50.29-0.73 50.02-0.59 49.76-0.44 49.46-0.34 49.17-0.24 48.88-0.1 48.58 0.05 48.49 0.34L48.49 0.34 48.24 0.34Q47.66 0.34 47.34 0.83 47.02 1.32 46.58 1.32L46.58 1.32Q46.44 1.32 46.39 1.27L46.39 1.27Q46.14 1.32 46.19 1.59 46.24 1.86 46.04 1.95L46.04 1.95 45.8 1.95Q44.53 1.95 43.21 2.49 41.89 3.03 40.55 3.71 39.21 4.39 37.82 5 36.43 5.62 35.01 5.81L35.01 5.81Q34.72 6.1 34.3 6.27 33.89 6.45 33.4 6.54 32.91 6.64 32.45 6.76 31.98 6.88 31.64 7.18L31.64 7.18Q30.42 7.28 29.2 7.62 27.98 7.96 26.78 8.28 25.59 8.59 24.34 8.81 23.1 9.03 21.83 8.94L21.83 8.94Q21.44 9.23 20.97 9.4 20.51 9.57 20.12 9.86L20.12 9.86Q18.12 9.57 16.14 9.42 14.16 9.28 12.26 8.74L12.26 8.74Q12.26 8.59 12.16 8.54 12.06 8.5 11.94 8.47 11.82 8.45 11.72 8.37 11.62 8.3 11.72 8.11L11.72 8.11Q11.28 8.25 10.94 8.25L10.94 8.25Q10.45 8.25 9.99 8.01 9.52 7.76 9.01 7.47 8.5 7.18 7.96 6.91 7.42 6.64 6.79 6.64L6.79 6.64Q6.4 6.25 6.08 5.86 5.76 5.47 5.62 4.88L5.62 4.88Q5.42 4.83 5.2 4.88 4.98 4.93 4.83 4.93L4.83 4.93Q4.54 4.93 4.54 4.74L4.54 4.74Q3.52 4 3.08 3.17 2.64 2.34 2.1 1.27L2.1 1.27Q1.95 0.93 1.73 0.71 1.51 0.49 1.42 0.2L1.42 0.2Q1.22-0.29 1.17-0.83 1.12-1.37 1.1-1.88 1.07-2.39 0.95-2.91 0.83-3.42 0.49-3.86L0.49-3.86Q0.59-5.71 0.9-7.57 1.22-9.42 1.71-11.28L1.71-11.28Q1.9-12.11 2.15-12.89 2.39-13.67 2.59-14.5L2.59-14.5Q2.64-14.79 2.76-14.92 2.88-15.04 2.98-15.09L2.98-15.09 3.17-15.23Q3.27-15.33 3.32-15.53L3.32-15.53 3.71-17.19Q4.1-18.8 4.74-20.31 5.37-21.83 6.45-23.1L6.45-23.1Q6.54-24.32 7.01-25.42 7.47-26.51 8.06-27.56 8.64-28.61 9.23-29.64 9.81-30.66 10.16-31.84L10.16-31.84 10.11-31.93Q10.11-32.13 10.33-32.15 10.55-32.18 10.64-32.18L10.64-32.18Q10.69-32.96 11.01-33.52 11.33-34.08 11.69-34.57 12.06-35.06 12.38-35.62 12.7-36.18 12.74-36.96L12.74-36.96Q13.67-37.5 14.33-38.31 14.99-39.11 15.6-39.97 16.21-40.82 16.89-41.63 17.58-42.43 18.55-42.92L18.55-42.92Q18.8-43.21 18.7-43.75L18.7-43.75Q20.21-44.87 21.83-45.75 23.44-46.63 24.85-47.8L24.85-47.8 26.61-47.8Q27.25-48.29 28.03-48.29L28.03-48.29Q28.61-48.29 29.17-48.05 29.74-47.8 30.25-47.49 30.76-47.17 31.3-46.85 31.84-46.53 32.37-46.39L32.37-46.39Q32.91-45.65 33.13-44.7 33.35-43.75 33.59-42.92L33.59-42.92Q33.15-41.6 33.06-40.21 32.96-38.82 32.71-37.45L32.71-37.45Q32.37-37.06 32.13-36.6 31.88-36.13 31.62-35.67 31.35-35.21 31.05-34.79 30.76-34.38 30.27-34.13L30.27-34.13Q29.88-32.71 29.05-31.88 28.22-31.05 27.44-29.93L27.44-29.93Q26.71-29.44 25.88-29.44L25.88-29.44Q25.2-29.44 24.66-29.76 24.12-30.08 23.68-30.59 23.24-31.1 22.97-31.71 22.71-32.32 22.56-32.91L22.56-32.91Q22.9-33.94 23.66-34.67 24.41-35.4 25.2-36.13 25.98-36.87 26.56-37.7 27.15-38.53 27.15-39.7L27.15-39.7Q27.15-39.79 27.12-39.89 27.1-39.99 27.1-40.09L27.1-40.09Q27.1-40.28 27.25-40.43 27.39-40.58 27.54-40.67L27.54-40.67 27.83-40.92Q27.98-41.06 27.98-41.26L27.98-41.26Q27.98-41.46 27.78-41.65L27.78-41.65Q25.93-41.5 24.98-41.02 24.02-40.53 23.49-39.94 22.95-39.36 22.53-38.79 22.12-38.23 21.34-37.99L21.34-37.99Q21.19-37.6 20.92-37.33 20.65-37.06 20.36-36.79 20.07-36.52 19.85-36.18 19.63-35.84 19.58-35.35L19.58-35.35 18.7-35.35Q18.51-34.91 18.14-34.5 17.77-34.08 17.41-33.69 17.04-33.3 16.77-32.84 16.5-32.37 16.6-31.84L16.6-31.84Q16.06-31.64 15.8-31.2 15.53-30.76 15.04-30.47L15.04-30.47 15.04-30.18Q15.04-29.79 14.89-29.44 14.75-29.1 14.84-28.71L14.84-28.71Q14.26-28.17 13.99-27.37 13.72-26.56 13.43-25.88L13.43-25.88Q12.74-25.54 12.5-24.95 12.26-24.37 12.26-23.58L12.26-23.58Q11.52-22.85 10.94-21.88 10.35-20.9 9.89-19.87 9.42-18.85 9.03-17.77 8.64-16.7 8.2-15.77L8.2-15.77 8.2-14.36Q7.52-13.57 7.25-12.52 6.98-11.47 6.45-10.64L6.45-10.64Q6.35-10.11 6.37-9.57 6.4-9.03 6.4-8.5L6.4-8.5Q6.4-7.91 6.3-7.28 6.2-6.64 5.96-6.1L5.96-6.1Q6.15-5.37 6.25-4.37 6.35-3.37 6.59-2.37 6.84-1.37 7.28-0.56 7.71 0.24 8.54 0.54L8.54 0.54Q8.74 1.61 9.5 2.17 10.25 2.73 11.23 3.08 12.21 3.42 13.23 3.69 14.26 3.96 15.04 4.39L15.04 4.39Q15.33 4.25 15.72 4.25L15.72 4.25Q16.11 4.25 16.43 4.35 16.75 4.44 17.14 4.54L17.14 4.54Q17.82 4.44 18.82 4.44 19.82 4.44 20.85 4.37 21.88 4.3 22.75 4.1 23.63 3.91 24.17 3.37L24.17 3.37Q24.51 3.37 24.63 3.56 24.76 3.76 25.1 3.76L25.1 3.76Q25.44 3.76 26.12 3.59 26.81 3.42 27.54 3.2 28.27 2.98 28.93 2.73 29.59 2.49 29.88 2.29L29.88 2.29Q30.03 2.34 30.18 2.34L30.18 2.34 30.52 2.34Q31.2 2.34 31.79 2.1 32.37 1.86 33.06 1.95L33.06 1.95Q35.3 0.83 37.62 0.02 39.94-0.78 42.33-1.42L42.33-1.42Q42.63-1.86 43.04-2.05 43.46-2.25 43.95-2.37 44.43-2.49 44.92-2.56 45.41-2.64 45.85-2.78L45.85-2.78Q46.14-2.93 46.36-3.15 46.58-3.37 46.92-3.52L46.92-3.52Q47.27-3.66 47.68-3.71 48.1-3.76 48.51-3.83 48.93-3.91 49.29-4.05 49.66-4.2 49.9-4.54L49.9-4.54Q50.59-4.25 51.29-3.91 52-3.56 52.49-2.93L52.49-2.93ZM76.07-28.27L76.07-28.27Q75.78-27.83 75.73-27.29 75.68-26.76 75.68-26.32L75.68-26.32Q75.68-25.73 75.71-25.17 75.73-24.61 75.73-24.07L75.73-24.07 75.73-23.34Q75.63-23 75.44-22.66 75.24-22.31 75.14-21.97L75.14-21.97Q74.46-20.17 74.46-18.36L74.46-18.36 74.46-18.26Q74.22-17.68 74-17.19 73.78-16.7 73.58-16.24 73.39-15.77 73.29-15.26 73.19-14.75 73.24-14.06L73.24-14.06Q72.56-12.35 71.43-10.96 70.31-9.57 69.24-8.11L69.24-8.11Q68.21-7.71 67.36-7.08 66.5-6.45 65.72-5.66L65.72-5.66Q64.21-5.18 62.74-4.54 61.28-3.91 60.1-2.83L60.1-2.83Q59.18-2.73 58.25-2.54 57.32-2.34 56.44-1.95L56.44-1.95 55.86-1.95Q55.42-1.95 55.22-2.15L55.22-2.15Q54.59-1.81 53.9-1.68 53.22-1.56 52.54-1.56L52.54-1.56Q51.66-1.56 50.8-1.68 49.95-1.81 49.07-1.95L49.07-1.95Q48.58-2.64 47.7-3 46.82-3.37 46.14-3.71L46.14-3.71Q44.72-5.66 44.09-7.5 43.45-9.33 42.77-11.62L42.77-11.62Q42.87-12.3 43.11-12.96 43.36-13.62 43.31-14.4L43.31-14.4Q44.19-16.94 45.63-19.02 47.07-21.09 48.92-23L48.92-23Q48.92-23.29 49.05-23.49 49.17-23.68 49.07-24.07L49.07-24.07Q49.12-24.02 49.27-24.02L49.27-24.02Q49.66-24.02 49.75-24.24 49.85-24.46 49.8-24.76L49.8-24.76Q51.56-25.88 53-27.34 54.44-28.81 56.3-29.79L56.3-29.79Q56.44-30.22 56.78-30.52 57.13-30.81 57.32-31.2L57.32-31.2Q58.88-31.64 60.15-32.52 61.42-33.4 62.84-34.08L62.84-34.08Q63.62-34.52 64.33-34.69 65.04-34.86 65.87-35.06L65.87-35.06Q66.16-35.16 66.4-35.21 66.65-35.25 66.94-35.25L66.94-35.25Q67.82-35.25 68.65-34.94 69.48-34.62 70.36-34.62L70.36-34.62Q70.6-34.62 70.77-34.64 70.94-34.67 71.14-34.72L71.14-34.72Q71.97-33.69 73.24-33.15L73.24-33.15Q73.53-32.42 73.95-31.88 74.36-31.35 74.8-30.83 75.24-30.32 75.61-29.71 75.97-29.1 76.07-28.27ZM71.19-25.73L71.19-25.73Q71.19-25.98 71.14-26.17L71.14-26.17Q70.65-26.32 70.21-26.56 69.77-26.81 69.24-26.81L69.24-26.81Q68.89-26.81 68.55-26.66L68.55-26.66Q68.5-27 68.28-27.15 68.06-27.29 67.8-27.42 67.53-27.54 67.26-27.61 66.99-27.69 66.79-27.88L66.79-27.88Q66.65-28.27 66.48-28.69 66.31-29.1 65.87-29.3L65.87-29.3Q65.43-28.86 64.84-28.59 64.26-28.32 63.64-28.08 63.03-27.83 62.47-27.49 61.91-27.15 61.52-26.66L61.52-26.66 60.64-26.66Q60.35-26.12 59.81-25.85 59.27-25.59 58.88-25.1L58.88-25.1Q58.1-24.71 57.44-24.15 56.78-23.58 56.15-22.97 55.52-22.36 54.9-21.73 54.29-21.09 53.61-20.56L53.61-20.56Q52.98-19.19 52.22-18.19 51.46-17.19 50.8-16.16 50.14-15.14 49.68-13.94 49.22-12.74 49.22-10.99L49.22-10.99 49.22-10.5Q49.22-10.25 49.27-10.01L49.27-10.01Q49.9-9.33 50.31-8.54 50.73-7.76 51.71-7.42L51.71-7.42Q52.68-7.03 53.78-7.08 54.88-7.13 55.91-6.84L55.91-6.84Q58.25-7.28 60.42-8.28 62.6-9.28 64.55-10.69L64.55-10.69Q64.84-10.94 65.23-11.21 65.62-11.47 65.87-11.77L65.87-11.77Q66.11-12.01 66.28-12.3 66.45-12.6 66.65-12.84L66.65-12.84Q67.04-13.48 67.53-14.11 68.02-14.75 68.55-15.28L68.55-15.28Q68.8-16.36 69.19-17.36 69.58-18.36 69.97-19.34 70.36-20.31 70.63-21.34 70.9-22.36 70.9-23.49L70.9-23.49Q70.9-23.73 70.87-24.02 70.85-24.32 70.8-24.56L70.8-24.56Q71.19-25.1 71.19-25.73ZM112.25-24.07L112.25-24.07Q112.25-23.58 111.91-23.44 111.57-23.29 111.57-22.85L111.57-22.85Q111.57-22.71 111.66-22.61 111.76-22.51 111.76-22.31L111.76-22.31 111.76-22.12Q111.18-19.29 110.08-17.19 108.98-15.09 107.51-13.33 106.05-11.57 104.22-10.01 102.39-8.45 100.29-6.74L100.29-6.74Q99.7-6.25 99.09-5.76 98.48-5.27 97.94-4.74L97.94-4.74 96.87-3.71Q96.82-3.66 96.33-3.49 95.84-3.32 95.75-3.27L95.75-3.27Q95.06-2.98 94.31-2.59 93.55-2.2 93.01-1.61L93.01-1.61Q92.04-1.61 91.35-1.32 90.67-1.03 89.84-0.54L89.84-0.54Q89.59-0.54 89.42-0.63 89.25-0.73 89.06-0.83 88.86-0.93 88.64-0.95 88.42-0.98 88.08-0.88L88.08-0.88Q87.5-1.86 86.81-2.54 86.13-3.22 84.96-3.37L84.96-3.37Q84.81-4.2 84.27-4.66 83.74-5.13 83.2-5.66L83.2-5.66Q83.1-5.96 83.05-6.35 83-6.74 82.86-7.08 82.71-7.42 82.47-7.67 82.22-7.91 81.78-7.91L81.78-7.91Q81.73-8.2 82.03-8.2 82.32-8.2 82.32-8.45L82.32-8.45Q82.32-8.74 82.22-9.03 82.12-9.33 82.12-9.67L82.12-9.67Q82.12-9.91 82.17-10.11 82.22-10.3 82.32-10.55L82.32-10.55Q82.17-11.87 82.17-13.23L82.17-13.23Q82.17-15.87 82.54-18.43 82.91-21 82.91-23.63L82.91-23.63Q82.91-24.8 82.78-25.98 82.66-27.15 82.32-28.27L82.32-28.27Q81.2-28.03 80.07-27.71 78.95-27.39 77.97-26.86L77.97-26.86Q77.44-27.2 76.83-27.27 76.22-27.34 75.63-27.54L75.63-27.54Q75.29-28.22 75.29-28.96L75.29-28.96Q75.29-29.64 75.53-30.27L75.53-30.27 76.02-31.54Q77.19-31.79 78.34-32.28 79.49-32.76 80.66-33.15L80.66-33.15Q81.05-33.25 81.66-33.4 82.27-33.54 82.51-33.64L82.51-33.64Q82.86-33.79 82.98-34.2 83.1-34.62 83.34-34.91L83.34-34.91 84.17-34.91Q84.47-34.91 84.81-34.89 85.15-34.86 85.44-34.72L85.44-34.72Q87.2-35.16 88.96-35.28 90.72-35.4 92.57-35.64L92.57-35.64Q92.77-35.64 93.16-35.69L93.16-35.69 93.99-35.84Q94.43-35.94 94.79-36.01 95.16-36.08 95.31-36.08L95.31-36.08Q95.45-36.08 95.45-35.94L95.45-35.94 96.28-35.94Q98.38-35.94 100.39-35.4L100.39-35.4 104.39-34.33Q105.22-33.64 106.05-33.01 106.88-32.37 107.91-31.88L107.91-31.88Q108.15-31.1 108.66-30.64 109.17-30.18 109.81-29.64L109.81-29.64Q110.05-29 110.47-28.3 110.88-27.59 111.27-26.86 111.66-26.12 111.96-25.42 112.25-24.71 112.25-24.07ZM107.71-23.34L107.71-23.34Q107.17-24.46 106.68-25.68 106.2-26.9 105.46-27.88L105.46-27.88Q104.58-28.13 103.68-28.49 102.78-28.86 102.44-29.79L102.44-29.79Q102.34-29.74 102.09-29.74L102.09-29.74Q101.66-29.74 101.31-30.08 100.97-30.42 100.53-30.52L100.53-30.52Q100.14-30.57 99.48-30.66 98.82-30.76 98.09-30.81 97.36-30.86 96.65-30.91 95.94-30.96 95.55-30.96L95.55-30.96Q95.16-30.96 94.75-30.93 94.33-30.91 93.89-30.86L93.89-30.86Q93.5-30.86 93.4-30.74 93.31-30.62 93.01-30.52L93.01-30.52Q92.77-30.62 92.48-30.62L92.48-30.62 91.89-30.62Q90.86-30.62 89.86-30.3 88.86-29.98 87.89-29.44L87.89-29.44 87.89-29.25Q87.89-28.86 88.23-28.81 88.57-28.76 88.62-28.42L88.62-28.42Q88.37-28.42 88.23-28.39 88.08-28.37 88.08-28.03L88.08-28.03Q88.08-27.54 88.2-26.95 88.33-26.37 88.33-25.78L88.33-25.78Q88.33-25.34 88.23-24.76 88.13-24.17 87.74-23.83L87.74-23.83Q88.23-23.39 88.23-22.66L88.23-22.66Q88.23-22.17 88.03-21.63 87.84-21.09 87.54-20.7L87.54-20.7Q87.45-18.65 87.15-16.55 86.86-14.45 86.86-12.4L86.86-12.4Q86.86-11.38 86.98-10.4 87.1-9.42 87.4-8.45L87.4-8.45Q87.93-7.91 88.54-7.62 89.16-7.32 89.84-7.03L89.84-7.03 89.84-6.88Q89.84-6.74 89.64-6.59 89.45-6.45 89.45-6.2L89.45-6.2Q89.45-6.01 89.64-6.01L89.64-6.01Q91.69-6.59 93.5-7.42 95.31-8.25 96.87-9.67L96.87-9.67Q97.02-9.81 97.16-9.81L97.16-9.81Q97.26-9.81 97.43-9.77 97.6-9.72 97.75-9.67L97.75-9.67 97.7-9.86Q97.7-10.16 97.87-10.4 98.04-10.64 98.29-10.84L98.29-10.84 98.77-11.28Q99.02-11.52 99.16-11.77L99.16-11.77Q99.56-11.87 99.73-12.16 99.9-12.45 100.34-12.45L100.34-12.45Q100.43-12.99 100.87-13.26 101.31-13.53 101.41-14.06L101.41-14.06Q102.39-14.6 103.14-15.38 103.9-16.16 104.56-17.04 105.22-17.92 105.81-18.87 106.39-19.82 107.03-20.7L107.03-20.7 107.03-20.9Q107.03-21.68 107.29-22.17 107.56-22.66 107.71-23.34ZM145.31-31.05L145.31-31.05 145.31-30.86Q144.96-30.76 144.96-30.37L144.96-30.37Q144.43-30.13 143.84-30 143.25-29.88 142.72-29.64L142.72-29.64Q142.18-29.69 141.62-29.71 141.06-29.74 140.52-29.74L140.52-29.74Q139.06-29.74 137.59-29.64 136.13-29.54 134.66-29.64L134.66-29.64Q133.98-29.25 133.17-29.03 132.37-28.81 131.63-28.81L131.63-28.81Q131.05-28.81 130.61-28.96L130.61-28.96Q129.44-28.37 128.04-27.98 126.65-27.59 125.24-27.22 123.82-26.86 122.53-26.39 121.23-25.93 120.26-25.1L120.26-25.1Q120.16-24.41 120.11-23.75 120.06-23.1 120.06-22.46L120.06-22.46Q120.06-21.78 120.13-21.19 120.21-20.61 120.45-20.02L120.45-20.02Q120.7-19.92 121.01-19.87 121.33-19.82 121.57-19.82L121.57-19.82Q121.82-19.82 122.06-19.9 122.31-19.97 122.4-20.21L122.4-20.21Q123.14-20.31 123.87-20.29 124.6-20.26 125.33-20.26L125.33-20.26Q126.07-20.26 126.77-20.31 127.48-20.36 128.17-20.56L128.17-20.56Q128.95-20.75 129.7-20.8 130.46-20.85 131.19-20.9 131.93-20.95 132.71-21.07 133.49-21.19 134.32-21.58L134.32-21.58Q134.95-21.34 135.61-21.34 136.27-21.34 136.91-21.24L136.91-21.24Q137.25-21 137.47-20.7 137.69-20.41 137.69-20.02L137.69-20.02Q137.69-19.34 137.2-18.65 136.71-17.97 136.42-17.38L136.42-17.38 135.88-17.38Q134.71-17.38 133.61-17.07 132.51-16.75 131.41-16.33 130.31-15.92 129.22-15.6 128.12-15.28 126.95-15.28L126.95-15.28Q126.75-15.28 126.73-15.06 126.7-14.84 126.6-14.75L126.6-14.75Q126.36-14.79 125.87-14.79L125.87-14.79Q124.75-14.79 123.72-14.55 122.7-14.31 121.62-14.31L121.62-14.31Q121.33-14.31 121.04-14.33 120.74-14.36 120.45-14.4L120.45-14.4Q120.21-14.01 119.82-13.89 119.43-13.77 119.08-13.48L119.08-13.48Q118.94-13.04 118.91-12.4 118.89-11.77 118.86-11.11 118.84-10.45 118.74-9.86 118.64-9.28 118.35-8.94L118.35-8.94Q118.4-8.69 118.74-8.76 119.08-8.84 119.08-8.45L119.08-8.45Q119.08-8.01 118.99-7.52 118.89-7.03 118.89-6.54L118.89-6.54Q118.89-5.62 119.11-4.52 119.33-3.42 119.79-2.49 120.26-1.56 121.04-0.95 121.82-0.34 122.99-0.34L122.99-0.34Q123.77-0.34 124.46-0.63 125.14-0.93 125.58-1.61L125.58-1.61 125.82-1.66Q126.02-1.66 126.19-1.61 126.36-1.56 126.56-1.56L126.56-1.56Q126.85-1.56 127.31-1.93 127.78-2.29 128.34-2.78 128.9-3.27 129.48-3.74 130.07-4.2 130.61-4.39L130.61-4.39Q130.95-5.08 131.27-5.76 131.58-6.45 132.22-6.84L132.22-6.84 132.22-8.25Q132.71-8.79 133.27-9.23 133.83-9.67 134.12-10.35L134.12-10.35Q134.37-10.25 134.59-10.21 134.81-10.16 135.05-10.16L135.05-10.16Q135.3-10.16 135.56-10.21 135.83-10.25 136.08-10.35L136.08-10.35Q136.47-9.81 136.69-9.16 136.91-8.5 137.25-7.91L137.25-7.91Q136.81-7.03 136.22-5.81 135.64-4.59 134.95-3.37 134.27-2.15 133.51-1.05 132.76 0.05 132.02 0.63L132.02 0.63Q131.88 0.78 131.39 0.98L131.39 0.98Q130.85 1.37 130.41 1.73 129.97 2.1 129.58 2.59L129.58 2.59Q128.17 3.03 126.87 3.76 125.58 4.49 124.31 5.18L124.31 5.18Q123.72 5.03 123.04 5.03L123.04 5.03Q122.45 5.03 121.87 5.1 121.28 5.18 120.6 5.18L120.6 5.18Q120.4 4.93 120.04 4.86 119.67 4.79 119.77 4.35L119.77 4.35Q118.11 4.25 117.08 3.44 116.06 2.64 115.35 1.46 114.64 0.29 114.2-1.07 113.76-2.44 113.27-3.71L113.27-3.71 113.27-3.86Q113.27-4.1 113.47-4.15 113.66-4.2 113.66-4.44L113.66-4.44Q113.66-4.54 113.62-4.59L113.62-4.59Q113.47-5.13 113.37-5.52 113.27-5.91 113.27-6.45L113.27-6.45Q113.27-7.23 113.37-7.98 113.47-8.74 113.47-9.52L113.47-9.52Q113.47-10.3 113.27-10.89L113.27-10.89Q113.47-11.13 113.59-11.55 113.71-11.96 113.76-12.4 113.81-12.84 113.84-13.28 113.86-13.72 113.96-14.06L113.96-14.06Q113.76-14.6 113.62-15.01 113.47-15.43 113.47-16.02L113.47-16.02 113.47-16.36Q113.96-17.19 114.3-18.07 114.64-18.95 115.03-19.87L115.03-19.87 115.03-20.02Q115.03-21.44 114.93-22.85 114.84-24.27 114.84-25.68L114.84-25.68 114.84-26.61Q114.84-27.1 114.89-27.54L114.89-27.54Q115.28-27.73 115.47-28.08 115.67-28.42 116.06-28.61L116.06-28.61 117.67-28.61 117.96-29.1Q118.11-29.35 118.16-29.64L118.16-29.64Q118.69-29.79 119.21-30.05 119.72-30.32 120.16-30.62L120.16-30.62Q120.84-31.01 121.4-31.32 121.97-31.64 122.53-31.86 123.09-32.08 123.72-32.23 124.36-32.37 125.19-32.47L125.19-32.47Q125.58-32.47 125.7-32.62 125.82-32.76 126.07-32.96L126.07-32.96Q126.65-32.86 127.24-32.79 127.82-32.71 128.41-32.71L128.41-32.71Q129.58-32.71 130.61-33.15L130.61-33.15Q132.07-33.15 133.51-33.2 134.95-33.25 136.42-33.25L136.42-33.25Q137.69-33.25 138.96-33.15 140.23-33.06 141.45-32.81L141.45-32.81Q141.89-32.96 142.42-32.96L142.42-32.96Q143.01-32.96 143.62-32.84 144.23-32.71 144.82-32.81L144.82-32.81Q144.87-32.28 145.09-31.91 145.31-31.54 145.31-31.05ZM173.43-22.8L173.43-22.8Q173.23-22.31 173.04-21.88 172.84-21.44 172.74-20.9L172.74-20.9Q172.4-20.65 171.99-20.53 171.57-20.41 171.13-20.29 170.69-20.17 170.33-20 169.96-19.82 169.77-19.48L169.77-19.48Q169.62-18.75 169.62-18.12L169.62-18.12Q169.62-17.29 169.91-16.7L169.91-16.7Q169.77-16.26 169.72-15.77 169.67-15.28 169.67-14.84L169.67-14.84Q169.67-13.23 170.06-11.65 170.45-10.06 170.5-8.45L170.5-8.45Q170.5-8.2 170.45-7.91 170.4-7.62 170.4-7.37L170.4-7.37Q170.4-6.35 171.18-6.01L171.18-6.01Q171.03-5.76 171.03-5.57L171.03-5.57Q171.03-5.18 171.13-4.88 171.23-4.59 171.18-4.25L171.18-4.25Q171.43-3.76 171.67-3.39 171.91-3.03 172.01-2.49L172.01-2.49Q171.67-1.81 171.18-1.25 170.69-0.68 170.5 0.15L170.5 0.15Q170.3 0.1 170.06 0.1L170.06 0.1Q169.72 0.1 169.52 0.24 169.33 0.39 169.2 0.61 169.08 0.83 168.94 1.05 168.79 1.27 168.54 1.37L168.54 1.37 168.4 1.37Q168.15 1.42 167.98 1.34 167.81 1.27 167.67 1.27L167.67 1.27Q167.57 1.27 167.28 1.37L167.28 1.37Q166.88 0.88 166.74 0.22 166.59-0.44 166.59-1.07L166.59-1.07Q166.59-1.76 166.79-2.29L166.79-2.29Q166.25-2.73 166.13-3.61 166.01-4.49 165.86-5.08L165.86-5.08Q165.47-6.88 164.96-8.59 164.44-10.3 164.35-12.11L164.35-12.11Q164.3-12.79 164.3-13.43L164.3-13.43 164.3-15.97Q164.3-16.6 164.35-17.19L164.35-17.19Q164.35-17.63 164.42-18.04 164.49-18.46 164.49-18.9L164.49-18.9Q164.49-19.48 164.1-20.02L164.1-20.02Q160.63-19.87 157.53-18.77 154.43-17.68 151.36-16.16L151.36-16.16Q151.16-15.04 151.11-13.96 151.06-12.89 151.06-11.77L151.06-11.77 151.06-9.62Q151.06-8.4 151.16-7.57L151.16-7.57Q151.41-6.15 152.6-5.4 153.8-4.64 155.02-4.25L155.02-4.25Q154.97-3.52 154.73-3 154.48-2.49 154.12-2.08 153.75-1.66 153.31-1.27 152.87-0.88 152.43-0.39L152.43-0.39Q152.04-0.63 151.65-0.73 151.26-0.83 150.82-0.85 150.38-0.88 149.94-0.93 149.5-0.98 149.06-1.12L149.06-1.12 147.99-2.59Q147.45-3.32 146.82-4.05L146.82-4.05 146.82-4.49Q146.82-5.81 146.33-7.03 145.84-8.25 145.6-9.52L145.6-9.52Q145.74-9.96 145.79-10.4 145.84-10.84 145.84-11.33L145.84-11.33Q145.84-12.3 145.77-13.23 145.69-14.16 145.79-15.09L145.79-15.09 145.55-15.09Q145.11-15.09 144.62-14.87 144.13-14.65 143.67-14.38 143.2-14.11 142.79-13.89 142.37-13.67 142.08-13.67L142.08-13.67Q141.93-13.67 141.79-13.72 141.64-13.77 141.45-13.77L141.45-13.77Q141.2-13.77 140.86-13.57 140.52-13.38 140.1-13.16 139.69-12.94 139.25-12.74 138.81-12.55 138.37-12.55L138.37-12.55Q137.69-12.55 137-13.13L137-13.13Q136.9-13.53 136.93-13.87 136.95-14.21 136.95-14.6L136.95-14.6Q136.95-14.99 136.81-15.43L136.81-15.43Q137.15-16.06 137.71-16.43 138.27-16.8 138.88-17.11 139.49-17.43 140.13-17.75 140.76-18.07 141.2-18.6L141.2-18.6 141.49-18.6Q142.18-18.6 142.74-18.9 143.3-19.19 144.03-19.14L144.03-19.14Q144.28-19.24 144.37-19.87L144.37-19.87 144.57-19.82Q145.64-19.82 146.47-20.56L146.47-20.56Q147.01-23.58 147.35-26.66 147.7-29.74 147.7-32.81L147.7-32.81Q147.7-33.11 147.5-33.4L147.5-33.4Q147.4-33.79 147.4-34.13L147.4-34.13 147.4-34.86Q147.4-35.4 147.45-35.99 147.5-36.57 147.7-37.16L147.7-37.16Q148.18-37.45 148.72-37.45L148.72-37.45Q149.36-37.45 149.97-37.28 150.58-37.11 151.16-37.01L151.16-37.01Q151.6-36.57 151.82-36.04 152.04-35.5 152.09-34.94 152.14-34.38 152.11-33.81 152.09-33.25 152.09-32.71L152.09-32.71Q152.09-31.64 152.33-30.62 152.58-29.59 152.58-28.61L152.58-28.61Q152.58-28.37 152.41-28.25 152.24-28.13 152.24-27.59L152.24-27.59Q152.24-27.05 152.33-26.46 152.43-25.88 152.43-25.29L152.43-25.29Q152.43-24.61 152.24-23.88 152.04-23.14 151.89-22.46L151.89-22.46Q154.82-22.71 157.9-23.19 160.98-23.68 163.76-24.76L163.76-24.76Q163.81-24.85 163.81-25.05L163.81-25.05Q163.81-25.34 163.76-25.63 163.71-25.93 163.71-26.27L163.71-26.27Q163.71-26.86 164.1-27.2L164.1-27.2Q163.86-28.56 163.76-29.93 163.66-31.3 163.66-32.67L163.66-32.67 163.66-35.45Q163.66-36.82 163.61-38.18L163.61-38.18Q164-38.43 164.44-38.43L164.44-38.43Q164.98-38.43 165.44-38.16 165.91-37.89 166.54-37.89L166.54-37.89Q166.98-37.89 167.28-38.04L167.28-38.04Q167.81-37.55 168.01-36.77 168.2-35.99 168.35-35.16 168.5-34.33 168.67-33.52 168.84-32.71 169.37-32.23L169.37-32.23 169.42-32.08Q169.42-31.88 169.23-31.79 169.03-31.69 169.03-31.4L169.03-31.4 169.03-31.2Q169.23-30.42 169.33-29.59 169.42-28.76 169.5-27.91 169.57-27.05 169.72-26.25 169.86-25.44 170.25-24.76L170.25-24.76Q170.5-24.8 170.89-24.8L170.89-24.8Q171.87-24.8 172.43-24.15 172.99-23.49 173.43-22.8ZM206.97-7.91L206.97-7.91Q206.77-7.18 206.34-6.69 205.9-6.2 205.33-5.81 204.77-5.42 204.14-5.1 203.5-4.79 202.92-4.39L202.92-4.39 202.28-4.39Q200.23-4.39 199.13-5.4 198.03-6.4 197.45-7.89 196.86-9.38 196.59-11.08 196.33-12.79 195.93-14.21L195.93-14.21Q195.35-13.72 194.96-13.06 194.57-12.4 194.15-11.77 193.74-11.13 193.22-10.6 192.71-10.06 191.88-9.86L191.88-9.86Q191.74-9.52 191.56-9.18 191.39-8.84 191.34-8.45L191.34-8.45Q190.27-7.86 189.39-7.08 188.51-6.3 187.63-5.47 186.76-4.64 185.85-3.88 184.95-3.13 183.83-2.64L183.83-2.64Q183.78-2.69 183.63-2.69L183.63-2.69Q183.04-2.69 182.56-2.42 182.07-2.15 181.48-2.15L181.48-2.15Q181.09-2.15 180.77-2.29 180.46-2.44 180.14-2.64 179.82-2.83 179.48-2.93 179.14-3.03 178.75-2.98L178.75-2.98Q178.26-3.86 177.45-4.61 176.65-5.37 176.45-6.35L176.45-6.35Q176.35-6.79 176.33-7.25 176.31-7.71 176.21-8.2L176.21-8.2Q176.06-8.94 175.82-9.69 175.57-10.45 175.43-11.23L175.43-11.23Q175.67-12.55 175.89-14.14 176.11-15.72 176.43-17.31 176.75-18.9 177.31-20.34 177.87-21.78 178.75-22.8L178.75-22.8 178.7-23.14Q178.7-23.93 178.99-24.61 179.28-25.29 179.63-25.93 179.97-26.56 180.21-27.2 180.46-27.83 180.31-28.61L180.31-28.61Q180.9-28.91 181.53-29.1 182.17-29.3 182.85-29.3L182.85-29.3Q183.48-29.3 184.02-29.1L184.02-29.1Q183.92-28.71 184.36-28.61L184.36-28.61 184.36-28.47Q184.36-27.44 184.12-26.46 183.87-25.49 183.53-24.54 183.19-23.58 182.87-22.63 182.56-21.68 182.41-20.7L182.41-20.7Q182.21-20.65 182.14-20.51 182.07-20.36 182.02-20.21 181.97-20.07 181.87-19.97 181.77-19.87 181.58-19.87L181.58-19.87Q181.29-18.16 180.97-16.48 180.65-14.79 180.65-13.09L180.65-13.09Q180.65-12.06 180.85-10.99 181.04-9.91 181.58-8.94L181.58-8.94 181.77-8.98Q182.31-8.98 182.63-8.74 182.95-8.5 183.48-8.25L183.48-8.25Q183.87-8.35 184.22-8.52 184.56-8.69 184.51-9.13L184.51-9.13Q185.14-9.18 185.58-9.45 186.02-9.72 186.36-10.06L186.36-10.06 187.1-10.74Q187.49-11.08 188.02-11.23L188.02-11.23Q188.02-11.52 188.17-11.67L188.17-11.67 188.46-11.96Q188.61-12.11 188.68-12.28 188.76-12.45 188.71-12.79L188.71-12.79Q189.29-12.84 189.61-13.09 189.93-13.33 190.2-13.65 190.47-13.96 190.71-14.31 190.95-14.65 191.34-14.89L191.34-14.89Q191.69-15.63 192.3-16.85 192.91-18.07 193.52-19.38 194.13-20.7 194.59-21.9 195.06-23.1 195.06-23.73L195.06-23.73Q195.06-23.97 194.93-24.17 194.81-24.37 194.86-24.61L194.86-24.61 194.86-24.76Q195.25-25.24 195.57-25.83 195.89-26.42 196.25-26.95 196.62-27.49 197.06-27.93 197.5-28.37 198.18-28.61L198.18-28.61Q198.96-28.37 199.77-28.27 200.57-28.17 201.31-27.88L201.31-27.88Q201.35-26.66 201.55-25.05 201.75-23.44 202.23-22.31L202.23-22.31Q202.23-21.68 202.21-21.09 202.18-20.51 202.18-19.92L202.18-19.92Q202.18-18.95 202.26-17.92 202.33-16.89 202.58-16.02L202.58-16.02Q202.23-15.28 202.23-14.45L202.23-14.45Q202.23-13.33 202.58-12.33 202.92-11.33 203.06-10.21L203.06-10.21Q203.7-9.33 204.72-9.33L204.72-9.33Q204.97-9.33 205.14-9.38 205.31-9.42 205.51-9.52L205.51-9.52Q205.9-9.08 206.21-8.67 206.53-8.25 206.97-7.91ZM245.2-34.42L245.2-34.42Q245.2-33.98 245-33.59L245-33.59 244.66-32.86Q244.52-32.52 244.37-32.13 244.22-31.74 244.27-31.2L244.27-31.2Q243.59-30.42 242.9-29.69 242.22-28.96 241.68-28.03L241.68-28.03Q241.15-28.08 240.88-27.78 240.61-27.49 240.46-27L240.46-27Q239.44-26.66 238.66-25.95 237.88-25.24 237.29-24.41L237.29-24.41Q234.7-23.34 232.46-21.78 230.21-20.21 228.35-18.12L228.35-18.12Q229.23-18.12 230.09-17.92 230.94-17.72 231.8-17.5 232.65-17.29 233.48-17.11 234.31-16.94 235.19-17.04L235.19-17.04Q235.82-16.46 236.63-16.06 237.44-15.67 238.24-15.33 239.05-14.99 239.8-14.55 240.56-14.11 241.15-13.48L241.15-13.48Q241.15-13.38 241.12-13.31 241.1-13.23 241.1-13.13L241.1-13.13Q241.1-12.74 241.29-12.38 241.49-12.01 241.49-11.62L241.49-11.62Q241.24-11.23 241.05-10.79 240.85-10.35 240.59-10.01 240.32-9.67 239.98-9.42 239.63-9.18 239.05-9.13L239.05-9.13Q238.8-8.3 238.27-7.84 237.73-7.37 237.07-7.01 236.41-6.64 235.78-6.27 235.14-5.91 234.7-5.32L234.7-5.32Q233.24-4.98 231.85-4.37 230.45-3.76 229.38-2.64L229.38-2.64Q228.65-2.54 227.89-2.42 227.13-2.29 226.4-2.29L226.4-2.29Q225.38-2.29 224.74-2.71 224.11-3.13 224.01-4.25L224.01-4.25Q224.15-4.59 224.45-4.83L224.45-4.83 225.08-5.32Q225.42-5.57 225.69-5.83 225.96-6.1 226.11-6.49L226.11-6.49Q226.21-6.49 226.35-6.47 226.5-6.45 226.65-6.45L226.65-6.45Q227.23-6.45 227.57-6.69 227.91-6.93 228.23-7.18 228.55-7.42 228.94-7.62 229.33-7.81 229.97-7.76L229.97-7.76Q230.31-8.4 230.99-8.72 231.67-9.03 232.41-9.3 233.14-9.57 233.8-9.94 234.46-10.3 234.7-11.04L234.7-11.04Q234.46-11.43 234.07-11.65 233.68-11.87 233.19-12.01L233.19-12.01 232.26-12.3Q231.82-12.45 231.48-12.65L231.48-12.65Q230.94-12.5 230.45-12.5L230.45-12.5Q229.43-12.5 228.45-12.7 227.48-12.89 226.45-12.89L226.45-12.89Q225.52-12.89 224.84-12.65L224.84-12.65Q224.59-12.7 224.33-12.79 224.06-12.89 223.81-12.99L223.81-12.99Q222.69-12.55 221.47-12.55L221.47-12.55 218.3-12.55Q217.9-12.55 217.51-12.45L217.51-12.45Q216.98-11.47 216.98-10.35L216.98-10.35Q216.98-9.52 217.22-8.76 217.47-8.01 217.71-7.18L217.71-7.18Q218.69-6.3 219.52-5.1 220.35-3.91 220.35-2.49L220.35-2.49Q220.35-2.15 220.3-1.95L220.3-1.95Q219.81-2.29 219.03-2.29L219.03-2.29Q218.34-2.29 217.73-2.1 217.12-1.9 216.44-1.81L216.44-1.81Q215.9-2.05 215.32-2.32 214.73-2.59 214.19-2.98L214.19-2.98Q213.8-3.81 213.41-4.57 213.02-5.32 212.44-6.01L212.44-6.01 212.44-6.2Q212.44-7.91 212.17-9.57 211.9-11.23 211.9-12.94L211.9-12.94Q211.9-13.72 211.97-14.53 212.05-15.33 212.44-16.02L212.44-16.02Q212.29-17.19 212.29-18.46L212.29-18.46Q212.29-21 212.58-23.54 212.88-26.07 212.88-28.71L212.88-28.71Q212.88-29.25 212.85-29.79 212.83-30.32 212.78-30.86L212.78-30.86 212.58-30.86Q211.95-30.86 211.36-30.69 210.78-30.52 210.19-30.32 209.6-30.13 208.97-29.96 208.33-29.79 207.7-29.79L207.7-29.79Q207.31-29.59 207.07-29.39 206.82-29.2 206.58-29.05 206.33-28.91 206.02-28.81 205.7-28.71 205.26-28.76L205.26-28.76Q204.72-28.42 204.4-28.25 204.09-28.08 203.5-27.88L203.5-27.88Q203.21-27.78 203.01-27.59L203.01-27.59 202.62-27.25Q202.43-27.1 202.18-26.95 201.94-26.81 201.55-26.81L201.55-26.81Q201.21-26.81 201.06-26.86L201.06-26.86Q200.77-27.1 200.55-27.44 200.33-27.78 200.11-28.1 199.89-28.42 199.62-28.69 199.35-28.96 198.96-29.1L198.96-29.1Q199.15-29.35 199.13-29.52 199.11-29.69 199.11-29.93L199.11-29.93Q199.11-30.08 199.15-30.13L199.15-30.13Q199.4-31.01 200.03-31.52 200.67-32.03 201.45-32.35 202.23-32.67 203.04-32.91 203.84-33.15 204.53-33.5L204.53-33.5Q206.43-33.45 207.99-33.86 209.56-34.28 211.22-35.06L211.22-35.06Q211.51-34.91 211.8-34.91L211.8-34.91Q212.05-34.91 212.29-34.96L212.29-34.96 212.78-35.06Q213.36-35.55 214.05-35.69 214.73-35.84 215.41-35.94 216.1-36.04 216.73-36.16 217.37-36.28 217.86-36.67L217.86-36.67 218.05-36.67Q219.22-36.67 220.42-37.06 221.62-37.45 222.74-37.35L222.74-37.35Q223.72-37.89 224.55-38.04 225.38-38.18 226.45-38.18L226.45-38.18Q226.69-38.18 227.04-38.4 227.38-38.62 227.87-38.62L227.87-38.62Q227.96-38.62 228.04-38.6 228.11-38.57 228.21-38.57L228.21-38.57Q228.65-38.57 228.82-38.87 228.99-39.16 229.72-39.16L229.72-39.16Q230.06-39.16 230.36-39.14 230.65-39.11 230.94-39.11L230.94-39.11Q231.28-39.11 231.38-39.38 231.48-39.65 231.82-39.6L231.82-39.6Q231.97-39.4 232.31-39.43 232.65-39.45 232.85-39.45L232.85-39.45Q233.19-39.45 233.24-39.26L233.24-39.26Q234.02-39.75 234.97-39.89 235.92-40.04 236.8-40.04L236.8-40.04Q237.14-40.04 237.49-40.01 237.83-39.99 238.22-39.94L238.22-39.94Q238.66-40.23 239.24-40.23L239.24-40.23Q239.58-40.23 240.34-39.94 241.1-39.65 241.93-39.26 242.76-38.87 243.44-38.43 244.13-37.99 244.27-37.7L244.27-37.7Q244.37-37.6 244.39-37.26 244.42-36.91 244.52-36.67L244.52-36.67Q244.76-36.08 244.98-35.57 245.2-35.06 245.2-34.42ZM239.78-33.89L239.78-33.89Q239.78-33.98 239.76-34.11 239.73-34.23 239.73-34.33L239.73-34.33Q239.49-34.62 239.07-34.77 238.66-34.91 238.19-35.01 237.73-35.11 237.27-35.18 236.8-35.25 236.46-35.4L236.46-35.4Q235.43-35.06 234.21-35.06L234.21-35.06Q233.09-35.06 232.21-35.4L232.21-35.4Q231.77-34.96 231.09-34.72 230.4-34.47 229.65-34.35 228.89-34.23 228.13-34.2 227.38-34.18 226.79-34.18L226.79-34.18Q226.6-34.18 226.11-33.89 225.62-33.59 225.23-33.59L225.23-33.59Q224.94-33.59 224.69-33.84L224.69-33.84Q224.25-33.5 223.47-33.25 222.69-33.01 221.86-32.84 221.03-32.67 220.18-32.47 219.32-32.28 218.74-32.08L218.74-32.08Q218.15-30.81 218.1-29.32 218.05-27.83 218.05-26.42L218.05-26.42Q218.05-25.59 217.95-24.8 217.86-24.02 217.86-23.19L217.86-23.19Q217.86-22.8 217.9-22.39 217.95-21.97 218.2-21.58L218.2-21.58Q217.81-21.29 217.69-20.83 217.56-20.36 217.56-19.92L217.56-19.92Q217.56-19.38 217.66-18.95 217.76-18.51 217.86-18.12L217.86-18.12Q219.42-18.26 220.71-18.7 222.01-19.14 223.15-19.78 224.3-20.41 225.38-21.24 226.45-22.07 227.62-23L227.62-23Q228.11-23.1 228.43-23.29 228.74-23.49 229.23-23.49L229.23-23.49Q229.43-24.17 229.97-24.44 230.5-24.71 230.8-25.24L230.8-25.24Q231.38-25.39 231.8-25.66 232.21-25.93 232.6-26.2 232.99-26.46 233.46-26.71 233.92-26.95 234.51-27L234.51-27Q235.34-27.98 236.24-28.96 237.14-29.93 238.36-30.52L238.36-30.52Q238.56-31.01 238.8-31.37 239.05-31.74 239.27-32.1 239.49-32.47 239.63-32.89 239.78-33.3 239.78-33.89Z" opacity="1" transform="matrix(1,0,0,1,0,0)" fill="#39cccc" class="wordmark-text-0" data-fill-palette-color="primary" id="text-0"></path></svg></g></svg></g><g transform="matrix(1,0,0,1,42.784000000000006,65.79515155307263)"><svg viewBox="0 0 138.432 15.70015258855586" height="15.70015258855586" width="138.432"><g transform="matrix(1,0,0,1,8,0)"><svg width="122.43199999999999" viewBox="2.549999952316284 -36.70000076293945 293.57000732421875 37.650001525878906" height="15.70015258855586" data-palette-color="#001f3f"><path d="M13.3 0.6L13.3 0.6Q8.65 0.6 5.6-3.18 2.55-6.95 2.55-13.05 2.55-19.15 4.65-24.18 6.75-29.2 10.65-32.35 14.55-35.5 18.98-35.5 23.4-35.5 26.13-33.5 28.85-31.5 28.85-28.73 28.85-25.95 27.2-24L27.2-24Q25.6-24 23.6-24.7 21.6-25.4 20.6-26.4L20.6-26.4 21.55-31.45Q20.35-32.2 18.4-32.2L18.4-32.2Q15.35-32.2 13-26.98 10.65-21.75 10.65-14.1L10.65-14.1Q10.65-9.05 12.33-6.78 14-4.5 16.4-4.5L16.4-4.5Q20.35-4.5 24-8.2L24-8.2 26.05-6.35Q25.5-5.55 24.05-4.15 22.6-2.75 21.2-1.83 19.8-0.9 17.65-0.15 15.5 0.6 13.3 0.6ZM35.6 0.6L35.6 0.6Q32.15 0.6 30.2-1.83 28.25-4.25 28.25-8.6L28.25-8.6Q28.25-14.15 31.22-18.15 34.2-22.15 39.45-22.15L39.45-22.15 41.25-22.05Q42.1-22.5 43.15-22.5L43.15-22.5Q47.1-22.5 47.1-15.05L47.1-15.05Q49.15-15.15 51.25-15.6L51.25-15.6 52.05-15.8 52.35-13.85Q50.7-13.15 47.9-12.6L47.9-12.6 46.9-12.4Q45.95-7.15 43.05-3.28 40.15 0.6 35.6 0.6ZM38.3-3.7L38.3-3.7Q40.4-3.7 42.07-6.4 43.75-9.1 44.4-12.1L44.4-12.1Q39.05-12.1 39.05-16.1L39.05-16.1Q39.05-17.7 39.7-19.1L39.7-19.1 39.95-19.6Q39.75-19.7 39.45-19.7 39.15-19.7 39-19.6L39-19.6Q37.75-18.8 36.65-15.85 35.55-12.9 35.55-9.1L35.55-9.1Q35.55-3.7 38.3-3.7ZM71.8-4.8L72.75-3.05Q68.5 0.6 65.27 0.6 62.05 0.6 61.55-2.6L61.55-2.6Q60.05-1.1 58.2-0.25 56.34 0.6 54.95 0.6L54.95 0.6Q52.55 0.6 50.84-1.5 49.15-3.6 49.15-8L49.15-8Q49.15-14.6 51.95-18.38 54.75-22.15 58.27-22.15 61.8-22.15 64.2-20.55L64.2-20.55Q65.75-28.65 65.75-33.3L65.75-33.3 65.5-35.4Q69.25-36.7 72.84-36.7L72.84-36.7Q73.25-35.85 73.25-34.75L73.25-34.75Q73.25-31.1 71.05-19.93 68.84-8.75 68.84-4.75L68.84-4.75Q68.84-3.55 69.4-3.55L69.4-3.55Q69.7-3.55 71.3-4.5L71.3-4.5 71.8-4.8ZM60.7-19.2L60.7-19.2Q58.95-19.2 57.67-15.75 56.4-12.3 56.4-8.93 56.4-5.55 56.87-4.6 57.34-3.65 58.3-3.65L58.3-3.65Q59.95-3.65 61.55-5L61.55-5Q61.7-7 63.8-18.3L63.8-18.3Q62.09-19.2 60.7-19.2ZM73.94-8.65L73.94-8.65Q73.94-14.9 77.72-18.53 81.49-22.15 86.29-22.15L86.29-22.15Q89.24-22.15 91.14-20.7 93.04-19.25 93.04-16.82 93.04-14.4 91.82-12.75 90.59-11.1 88.84-10.2L88.84-10.2Q85.29-8.45 82.34-8L82.34-8 81.14-7.85Q81.49-3.15 84.99-3.15L84.99-3.15Q86.19-3.15 87.54-3.75 88.89-4.35 89.64-4.95L89.64-4.95 90.39-5.55 91.59-3.95Q91.19-3.4 89.99-2.5 88.79-1.6 87.74-1L87.74-1Q84.84 0.6 81.39 0.6 77.94 0.6 75.94-1.85 73.94-4.3 73.94-8.65ZM81.09-10.3Q83.64-10.75 85.14-12.45 86.64-14.15 86.64-16.85 86.64-19.55 85.04-19.55L85.04-19.55Q83.14-19.55 82.12-16.32 81.09-13.1 81.09-10.3L81.09-10.3ZM108.44-6.15L108.44-6.15Q108.44-6.15 108.79-22L108.79-22Q108.79-28.3 108.04-30.1L108.04-30.1 105.59-33.9 105.74-34.65Q109.29-35.45 115.94-35.45L115.94-35.45Q116.89-34 116.89-30.08 116.89-26.15 116.39-19.53 115.89-12.9 115.89-9.3 115.89-5.7 117.59-5.7L117.59-5.7Q118.59-5.7 120.49-7.33 122.39-8.95 123.74-10.85L123.74-10.85Q124.84-22.15 124.84-26.1 124.84-30.05 123.74-33.45L123.74-33.45Q126.39-34.8 132.44-35.5L132.44-35.5Q132.99-33.7 132.99-30.43 132.99-27.15 131.96-19.05 130.94-10.95 130.94-8.33 130.94-5.7 132.46-5.7 133.99-5.7 136.59-8.6 139.19-11.5 141.36-15.83 143.54-20.15 143.79-23.65L143.79-23.65 138.49-26.75Q138.84-29.75 139.91-31.93 140.99-34.1 141.89-34.8L141.89-34.8 142.79-35.5Q145.84-35.5 147.46-33.93 149.09-32.35 149.09-30.2L149.09-30.2Q149.09-26.15 147.06-20.75 145.04-15.35 142.06-10.65 139.09-5.95 135.29-2.68 131.49 0.6 128.29 0.6L128.29 0.6Q126.39 0.6 124.91-1.2 123.44-3 123.39-5.8L123.39-5.8Q121.19-2.8 118.74-1.1 116.29 0.6 114.04 0.6 111.79 0.6 110.11-1.28 108.44-3.15 108.44-6.15ZM158.99-19.05Q158.99-16.95 157.64-11.83 156.29-6.7 156.29-5.13 156.29-3.55 156.74-3.55L156.74-3.55Q157.04-3.55 159.04-4.5L159.04-4.5 159.64-4.8 160.49-3.05Q160.04-2.65 159.29-2.05 158.54-1.45 156.49-0.43 154.44 0.6 152.69 0.6 150.94 0.6 149.94-0.48 148.94-1.55 148.94-3.38 148.94-5.2 150.19-9.88 151.44-14.55 151.44-15.95L151.44-15.95Q151.44-18.05 150.14-19.9L150.14-19.9 149.69-20.5 149.74-21.15Q152.39-21.9 158.34-21.9L158.34-21.9Q158.99-21.15 158.99-19.05ZM153.29-27.38Q152.29-28.35 152.29-30 152.29-31.65 153.66-32.9 155.04-34.15 156.84-34.15 158.64-34.15 159.64-33.15 160.64-32.15 160.64-30.53 160.64-28.9 159.21-27.65 157.79-26.4 156.04-26.4 154.29-26.4 153.29-27.38ZM173.03-21.55L177.88-21.55Q177.78-20.3 177.03-18.65L177.03-18.65Q175.13-18.85 173.43-18.85L173.43-18.85 172.53-18.85Q170.23-7.7 170.23-4.95L170.23-4.95Q170.23-3.5 170.86-3.5 171.48-3.5 174.18-4.75L174.18-4.75 175.08-3.1Q170.63 0.6 166.83 0.6L166.83 0.6Q165.08 0.6 163.96-0.5 162.83-1.6 162.83-3.43 162.83-5.25 163.26-7.55 163.68-9.85 164.43-13.18 165.18-16.5 165.53-18.55L165.53-18.55Q163.68-18.4 162.78-18.25L162.78-18.25Q162.68-18.85 162.68-19.88 162.68-20.9 162.83-21.55L162.83-21.55 165.98-21.55Q166.38-24.25 166.38-26.65L166.38-26.65 166.33-28.2 166.33-28.35Q170.23-29.7 173.68-29.7L173.68-29.7Q173.88-28.7 173.88-27.2 173.88-25.7 173.03-21.55L173.03-21.55ZM182.83-33L182.83-33Q182.83-34.65 182.53-35.35L182.53-35.35Q186.43-36.7 189.88-36.7L189.88-36.7Q190.33-36.25 190.33-34.4L190.33-34.4Q190.33-31.1 187.53-19.2L187.53-19.2Q191.58-22.15 194.63-22.15L194.63-22.15Q196.53-22.15 197.51-20.95 198.48-19.75 198.48-17.78 198.48-15.8 197.33-11.33 196.18-6.85 196.18-5.2 196.18-3.55 196.58-3.55 196.98-3.55 198.68-4.45L198.68-4.45 199.28-4.75 200.18-3Q199.73-2.6 198.98-2 198.23-1.4 196.23-0.4 194.23 0.6 192.56 0.6 190.88 0.6 189.88-0.48 188.88-1.55 188.88-3.38 188.88-5.2 190.01-10.03 191.13-14.85 191.13-16.13 191.13-17.4 190.08-17.4L190.08-17.4Q188.78-17.4 186.83-16.3L186.83-16.3Q184.08-4.2 184.08-0.6L184.08-0.6Q181.98 0.2 176.93 0.2L176.93 0.2Q176.88-0.65 176.88-1.3L176.88-1.3Q176.88-3.45 179.86-16 182.83-28.55 182.83-33ZM234.28-2.4Q233.68-0.85 232.4 0.05 231.13 0.95 229.4 0.95 227.68 0.95 224.25-1.15 220.83-3.25 218.78-3.85L218.78-3.85Q217.43-2.05 215.73-0.85 214.03 0.35 213.38 0.35L213.38 0.35Q212.88 0.35 211.38-1.83 209.88-4 209.88-4.95L209.88-4.95Q209.88-5.5 211.45-6.6 213.03-7.7 214.78-8.1L214.78-8.1Q216.03-11.15 217.38-17.13 218.73-23.1 219.48-29.45L219.48-29.45Q219.48-30.25 218.95-31.38 218.43-32.5 217.88-33.2L217.88-33.2 217.38-33.9 217.53-34.65Q220.53-35.5 227.38-35.5L227.38-35.5Q228.03-34.4 228.03-32.15 228.03-29.9 226.73-25.45 225.43-21 223.15-14.78 220.88-8.55 220.53-7.4L220.53-7.4Q220.73-7.35 221.78-7.05 222.83-6.75 223.15-6.68 223.48-6.6 224.43-6.38 225.38-6.15 225.93-6.08 226.48-6 227.38-5.9L227.38-5.9Q228.93-5.65 230.3-5.65 231.68-5.65 232.28-6.35L232.28-6.35 233.68-8.95 235.33-8.55Q235.33-5.3 234.28-2.4L234.28-2.4ZM243.82 0.6L243.82 0.6Q240.37 0.6 238.42-1.83 236.47-4.25 236.47-8.6L236.47-8.6Q236.47-14.15 239.45-18.15 242.42-22.15 247.67-22.15L247.67-22.15 249.47-22.05Q250.32-22.5 251.37-22.5L251.37-22.5Q255.32-22.5 255.32-15.05L255.32-15.05Q257.37-15.15 259.47-15.6L259.47-15.6 260.27-15.8 260.57-13.85Q258.92-13.15 256.12-12.6L256.12-12.6 255.12-12.4Q254.17-7.15 251.27-3.28 248.37 0.6 243.82 0.6ZM246.52-3.7L246.52-3.7Q248.62-3.7 250.3-6.4 251.97-9.1 252.62-12.1L252.62-12.1Q247.27-12.1 247.27-16.1L247.27-16.1Q247.27-17.7 247.92-19.1L247.92-19.1 248.17-19.6Q247.97-19.7 247.67-19.7 247.37-19.7 247.22-19.6L247.22-19.6Q245.97-18.8 244.87-15.85 243.77-12.9 243.77-9.1L243.77-9.1Q243.77-3.7 246.52-3.7ZM262.4-22.15Q264.57-22.15 265.65-21.25 266.72-20.35 266.72-17.55L266.72-17.55Q266.72-16.05 265.82-11.43 264.92-6.8 264.92-5.8L264.92-5.8Q264.92-3.8 265.72-3.8L265.72-3.8Q267.62-3.8 269.9-6.63 272.17-9.45 272.27-11.35L272.27-11.35 268.87-15.15Q269.07-17.3 269.92-19.05 270.77-20.8 271.52-21.5L271.52-21.5 272.22-22.15Q274.37-22.15 275.47-21 276.57-19.85 276.57-18.3L276.57-18.3Q276.57-14.35 274.62-9.95 272.67-5.55 269.42-2.48 266.17 0.6 262.82 0.6L262.82 0.6Q260.72 0.6 259.6-0.7 258.47-2 258.47-4.13 258.47-6.25 258.8-9.85 259.12-13.45 259.12-17L259.12-17Q259.12-17.8 258.55-18.9 257.97-20 257.37-20.65L257.37-20.65 257.52-21.25Q260.22-22.15 262.4-22.15ZM277.02-8.65L277.02-8.65Q277.02-14.9 280.79-18.53 284.57-22.15 289.37-22.15L289.37-22.15Q292.32-22.15 294.22-20.7 296.12-19.25 296.12-16.82 296.12-14.4 294.89-12.75 293.67-11.1 291.92-10.2L291.92-10.2Q288.37-8.45 285.42-8L285.42-8 284.22-7.85Q284.57-3.15 288.07-3.15L288.07-3.15Q289.27-3.15 290.62-3.75 291.97-4.35 292.72-4.95L292.72-4.95 293.47-5.55 294.67-3.95Q294.27-3.4 293.07-2.5 291.87-1.6 290.82-1L290.82-1Q287.92 0.6 284.47 0.6 281.02 0.6 279.02-1.85 277.02-4.3 277.02-8.65ZM284.17-10.3Q286.72-10.75 288.22-12.45 289.72-14.15 289.72-16.85 289.72-19.55 288.12-19.55L288.12-19.55Q286.22-19.55 285.19-16.32 284.17-13.1 284.17-10.3L284.17-10.3Z" opacity="1" transform="matrix(1,0,0,1,0,0)" fill="#001f3f" class="slogan-text-1" data-fill-palette-color="secondary" id="text-1"></path></svg></g></svg></g></svg></g></svg></g><g transform="matrix(1,0,0,1,49.19104958326241,0)"><svg viewBox="0 0 125.61790083347518 125.61790083347518" height="125.61790083347518" width="125.61790083347518"><g><svg></svg></g><g id="icon-0"><svg viewBox="0 0 125.61790083347518 125.61790083347518" height="125.61790083347518" width="125.61790083347518"><g><path d="M0 62.809c0-34.688 28.121-62.809 62.809-62.809 34.688 0 62.809 28.121 62.809 62.809 0 34.688-28.121 62.809-62.809 62.809-34.688 0-62.809-28.121-62.809-62.809zM62.809 120.818c32.037 0 58.009-25.971 58.009-58.009 0-32.037-25.971-58.009-58.009-58.009-32.037 0-58.009 25.971-58.009 58.009 0 32.037 25.971 58.009 58.009 58.009z" data-fill-palette-color="tertiary" fill="#001f3f" stroke="transparent"></path></g><g transform="matrix(1,0,0,1,29.33383344883852,29.33383344883852)"><svg viewBox="0 0 66.95023393579814 66.95023393579814" height="66.95023393579814" width="66.95023393579814"><g><svg xmlns="http://www.w3.org/2000/svg" xmlns:xlink="http://www.w3.org/1999/xlink" version="1.1" x="0" y="0" viewBox="11.0260009765625 11.026000022888184 77.9489974975586 77.9489974975586" enable-background="new 0 0 100 100" xml:space="preserve" height="66.95023393579814" width="66.95023393579814" class="icon-s-0" data-fill-palette-color="accent" id="s-0"><path d="M50 11.026c-21.525 0-38.974 17.449-38.974 38.974 0 12.283 5.688 23.232 14.567 30.376l-14.567 8.599H50c21.525 0 38.975-17.449 38.975-38.975C88.975 28.475 71.523 11.026 50 11.026zM38.165 60.521c0.581 0.581 0.581 1.521 0 2.103-0.581 0.581-1.521 0.581-2.102 0L24.516 51.076c-0.581-0.581-0.581-1.521 0-2.102l11.547-11.547c0.581-0.581 1.522-0.581 2.102 0 0.581 0.58 0.581 1.521 0 2.102L27.669 50.025 38.165 60.521zM56.854 38.539L45.851 62.692c-0.249 0.548-0.789 0.871-1.353 0.871-0.206 0-0.415-0.044-0.615-0.134-0.747-0.342-1.077-1.223-0.737-1.97l11.004-24.153c0.34-0.747 1.221-1.077 1.968-0.736C56.865 36.911 57.194 37.792 56.854 38.539zM75.484 51.076L63.938 62.623c-0.581 0.581-1.522 0.581-2.103 0-0.581-0.58-0.581-1.521 0-2.102l10.496-10.496L61.835 39.529c-0.581-0.581-0.581-1.521 0-2.102s1.521-0.581 2.103 0l11.547 11.547C76.065 49.555 76.065 50.496 75.484 51.076z" fill="#001f3f" data-fill-palette-color="accent"></path></svg></g></svg></g></svg></g></svg></g><g></g></svg></g></svg></g></svg></g><defs></defs></svg><rect width="320" height="360" fill="none" stroke="none" visibility="hidden"></rect></g></svg></g></svg>