<svg xmlns="http://www.w3.org/2000/svg" version="1.1" xmlns:xlink="http://www.w3.org/1999/xlink" xmlns:svgjs="http://svgjs.dev/svgjs" width="2000" height="2000" viewBox="0 0 2000 2000"><g transform="matrix(1,0,0,1,-0.9999999999998863,-0.9999999999998863)"><svg viewBox="0 0 280 280" data-background-color="#ffffff" preserveAspectRatio="xMidYMid meet" height="2000" width="2000" xmlns="http://www.w3.org/2000/svg" xmlns:xlink="http://www.w3.org/1999/xlink"><g id="tight-bounds" transform="matrix(1,0,0,1,0.13999999999998636,0.13999999999998636)"><svg viewBox="0 0 279.72 279.72" height="279.72" width="279.72"><g><svg viewBox="0 0 279.72 279.72" height="279.72" width="279.72"><g><svg viewBox="0 0 279.72 279.72" height="279.72" width="279.72"><g id="textblocktransform"><svg viewBox="0 0 279.72 279.72" height="279.72" width="279.72" id="textblock"><g><svg viewBox="0 0 279.72 279.72" height="279.72" width="279.72"><g transform="matrix(1,0,0,1,57.446704652707865,57.446704652707865)"><svg viewBox="0 0 164.8265906945843 164.8265906945843" height="164.8265906945843" width="164.8265906945843"><g><circle r="82" cx="82.41329534729215" cy="82.41329534729215" fill="#ffffff" data-fill-palette-color="accent"></circle><svg xmlns="http://www.w3.org/2000/svg" xmlns:xlink="http://www.w3.org/1999/xlink" version="1.1" x="24.72398860418764" y="24.723988604187646" viewBox="6.300000190734863 11.5 87.39999389648438 77" style="enable-background:new 0 0 100 100;" xml:space="preserve" height="115.378613486209" width="115.378613486209" class="icon-o-0" data-fill-palette-color="quaternary" id="o-0"><path d="M72.3 12.3L72.3 12.3 72.3 12.3l-0.4-0.8H28.2L6.3 50l21.8 38.5h43.7L93.7 50 72.3 12.3zM33.3 25.3L9.9 47.7l18.6-32.8L33.3 25.3zM70.7 14.8l6.4 35.7L36.9 25.8 70.7 14.8zM35.5 27.3l41 25.2-41 23.3V27.3zM77 54.5l-7.2 30.8-32.6-8.1L77 54.5zM33.5 75L9.9 50.5l23.6-22.7V75zM33.2 77.6l-4.6 7.7L11.5 55.1 33.2 77.6zM35 78.6l31.4 7.9H30.2L35 78.6zM79.3 53.3l11.6-2.5L72.1 84 79.3 53.3zM90.7 48.9l-11.4 2.5-5.9-33.1L90.7 48.9zM35 24.3l-5-10.8h38.2L35 24.3z" fill="#000000" data-fill-palette-color="quaternary"></path></svg></g></svg></g><g><path d="M4.435 92.115l26.609 10.055-1.333 3.529-7.335 3.328-15.983-6.04-3.292-7.343zM12.501 86.824l-2.226 5.889-5.308-2.006 3.57-9.447 7.314-3.303 5.356 2.024-3.35 8.867zM35.146 91.315l-3.57 9.447-5.318-2.01 2.225-5.889-3.891-1.47 3.351-8.867 3.891 1.471z" fill="#ffffff" data-fill-palette-color="primary"></path><path d="M54.821 38.238l8.194 7.927 0.132 8.039-4.412 4.561-3.823-3.698 1.641-1.696-8.457-8.182-1.641 1.696-4.085-3.953 4.412-4.561zM43.697 49.735l8.457 8.182 1.719-1.776 3.822 3.699-4.427 4.575-8.038 0.133-8.194-7.927-0.133-8.039 4.427-4.576 4.086 3.953z" fill="#ffffff" data-fill-palette-color="primary"></path><path d="M87.23 3.703l8.725-3.703 12.284 28.948-8.725 3.702zM87.259 19.29l4.597 10.832 4.204-1.784 1.199 2.827-1.191 2.947-6.141 2.606-6.721-2.716-4.891-11.524 2.717-6.721 8.21-3.484 2.221 5.233z" fill="#ffffff" data-fill-palette-color="primary"></path><path d="M138.986 2.643l0.055 22.77-3.793 0.01-5.699-5.672-0.028-11.401 5.672-5.698zM154.244 16.244l-13.72 0.033-0.009-3.966 4.993-0.012-0.009-3.987-4.994 0.012-0.013-5.685 8.034-0.019 5.699 5.671zM150.442 25.386l-9.896 0.024-0.013-5.319 12.733-0.031 0.006 2.472z" fill="#ffffff" data-fill-palette-color="primary"></path><path d="M175.106 30.341l12.004-29.064 8.761 3.618-12.005 29.065zM189.121 36.13l6.522-15.792-3.872-1.599 1.094-2.651 3.661-1.536 4.794 1.98 3.093 7.429-6.522 15.791z" fill="#ffffff" data-fill-palette-color="primary"></path><path d="M242.096 47.12l6.672 6.718-16.157 16.046-6.672-6.718zM238.061 43.057l-12.123 12.04 2.974 2.995-2.013 1.999-3.956 0.059-3.698-3.724 0.014-8.054 12.123-12.04z" fill="#ffffff" data-fill-palette-color="primary"></path><path d="M273.06 76.748l3.559 8.785-29.146 11.806-3.558-8.785zM254.561 100.668l10.906-4.418-1.596-3.94 2.658-1.077 3.661 1.535 1.947 4.807-3.131 7.413-10.566 4.281-7.408-3.144-2.997-7.4 4.93-1.997z" fill="#ffffff" data-fill-palette-color="primary"></path><path d="M13.913 194.318c-1.042-2.73-1.447-5.297-1.218-7.7 0.224-2.4 1.047-4.492 2.471-6.276 1.426-1.778 3.356-3.131 5.789-4.059v0c3.376-1.288 6.619-1.796 9.727-1.523 3.102 0.275 5.786 1.232 8.051 2.872 2.269 1.631 3.913 3.779 4.93 6.446v0c0.945 2.477 1.026 4.601 0.244 6.373-0.783 1.772-2.219 3.056-4.31 3.854v0c-1.4 0.534-2.622 0.717-3.666 0.549-1.037-0.17-1.731-0.715-2.081-1.633v0c-0.244-0.64-0.287-1.2-0.13-1.681 0.164-0.483 0.531-0.834 1.101-1.052v0c0.209-0.08 0.606-0.18 1.191-0.302v0c0.744-0.124 1.321-0.265 1.733-0.421v0c2.09-0.798 2.71-2.311 1.86-4.541v0c-0.578-1.514-1.623-2.77-3.136-3.768-1.515-1.004-3.394-1.564-5.637-1.681-2.237-0.119-4.676 0.325-7.318 1.334v0c-2.756 1.051-4.594 2.634-5.514 4.748-0.914 2.112-0.798 4.67 0.347 7.673v0c0.57 1.495 1.337 2.933 2.299 4.315 0.956 1.384 2.182 2.857 3.679 4.42v0c0.264 0.291 0.439 0.551 0.526 0.779v0c0.14 0.367 0.109 0.695-0.094 0.982-0.209 0.29-0.528 0.517-0.959 0.682v0c-1.406 0.537-2.731 0.175-3.973-1.086v0c-1.331-1.357-2.5-2.853-3.508-4.485-0.999-1.629-1.8-3.235-2.404-4.819z" fill="#ffffff" data-fill-palette-color="primary"></path><path d="M41.256 220.286c0.175 0.267 0.175 0.558 0.001 0.874-0.17 0.322-0.462 0.619-0.876 0.89v0c-0.987 0.647-1.771 0.731-2.351 0.252v0c-1.237-0.948-2.372-2.142-3.405-3.581v0c-1.98 0.738-3.867 0.872-5.659 0.401-1.792-0.471-3.166-1.435-4.121-2.893v0c-0.81-1.236-1.204-2.486-1.18-3.749 0.023-1.264 0.379-2.445 1.069-3.546 0.693-1.095 1.615-2.019 2.766-2.774v0c1.565-1.026 3.153-1.64 4.762-1.843 1.615-0.207 3.11-0.011 4.484 0.588 1.379 0.596 2.485 1.529 3.317 2.799v0c1.026 1.565 1.312 3.177 0.859 4.836-0.455 1.668-1.42 3.103-2.894 4.304v0c0.694 0.923 1.655 1.939 2.884 3.047v0c0.147 0.138 0.262 0.27 0.344 0.395zM28.273 214.336c0.431 0.658 1.071 1.053 1.921 1.185 0.855 0.129 1.838-0.053 2.949-0.546v0c0.015-0.918 0.262-1.777 0.742-2.578 0.475-0.797 1.103-1.452 1.886-1.965v0c0.329-0.216 0.678-0.4 1.048-0.553v0l-0.1-0.153c-0.539-0.822-1.384-1.246-2.535-1.27-1.151-0.024-2.443 0.434-3.878 1.374v0c-1.134 0.743-1.854 1.531-2.159 2.364-0.306 0.833-0.263 1.547 0.126 2.142z" fill="#ffffff" data-fill-palette-color="primary"></path><path d="M55.968 240.237c0.221 0.229 0.291 0.511 0.208 0.845-0.088 0.339-0.317 0.687-0.688 1.045v0c-0.708 0.683-1.416 1.046-2.127 1.091v0c-1.585 0.125-3.108 0.055-4.57-0.211-1.463-0.256-2.604-0.809-3.423-1.658v0c-1.299-1.347-1.505-3.132-0.616-5.355v0c-1.652 0.162-2.905 0.118-3.76-0.133-0.854-0.25-1.641-0.749-2.361-1.495v0c-1.04-1.078-1.495-2.355-1.362-3.829 0.132-1.475 0.842-2.833 2.13-4.076v0c1.415-1.365 3.02-2.334 4.813-2.906 1.789-0.567 3.578-0.696 5.365-0.386 1.783 0.315 3.376 1.058 4.78 2.229v0c3.76-2.978 7.311-5.165 10.654-6.563 3.343-1.398 5.756-1.328 7.239 0.209v0c0.734 0.761 1 1.725 0.797 2.891-0.198 1.171-0.998 2.432-2.398 3.784v0c-1.981 1.911-4.767 3.657-8.358 5.237-3.591 1.59-7.571 2.919-11.939 3.987v0c-0.954 1.062-1.538 1.926-1.751 2.594-0.208 0.663-0.134 1.18 0.224 1.55v0c0.461 0.478 1.142 0.759 2.042 0.842 0.905 0.088 2.252 0.069 4.043-0.057v0c0.451-0.021 0.804 0.101 1.058 0.365zM69.37 221.258c-0.325-0.337-1.247-0.097-2.768 0.72-1.511 0.817-3.345 2.036-5.503 3.656-2.158 1.62-4.343 3.394-6.554 5.32v0c6.23-2.185 10.652-4.54 13.267-7.062v0c0.673-0.65 1.139-1.212 1.397-1.687 0.263-0.47 0.316-0.786 0.161-0.947zM42.207 232.711c0.325 0.337 0.786 0.542 1.384 0.615 0.598 0.073 1.518 0.006 2.759-0.202v0c0.782-1.094 1.766-2.212 2.951-3.357v0c0.424-0.41 1.131-1.059 2.121-1.947v0c-1.239-0.679-2.67-0.863-4.291-0.552-1.622 0.321-3.042 1.07-4.263 2.247v0c-1.293 1.248-1.513 2.313-0.661 3.196z" fill="#ffffff" data-fill-palette-color="primary"></path><path d="M72.812 252.563c0.259 0.186 0.378 0.451 0.357 0.794-0.025 0.349-0.188 0.733-0.489 1.152v0c-0.573 0.799-1.208 1.282-1.905 1.449v0c-1.383 0.368-3.017 0.447-4.902 0.236-1.895-0.209-3.611-0.865-5.147-1.968v0c-2.098-1.507-3.319-3.242-3.661-5.207-0.338-1.97 0.203-3.944 1.622-5.921v0c0.989-1.377 2.199-2.453 3.632-3.227 1.428-0.769 2.909-1.133 4.441-1.094 1.527 0.036 2.94 0.521 4.239 1.454v0c1.157 0.83 1.837 1.841 2.043 3.032 0.205 1.191-0.115 2.375-0.962 3.554v0c-0.989 1.377-2.332 2.202-4.031 2.476-1.698 0.284-3.933-0.132-6.705-1.246v0c-0.159 1.28 0.461 2.422 1.859 3.426v0c0.898 0.645 2.147 1.061 3.747 1.251 1.602 0.199 3.187 0.089 4.756-0.329v0c0.435-0.105 0.803-0.049 1.106 0.168zM68.381 242.796c-0.738-0.53-1.669-0.547-2.792-0.052-1.129 0.491-2.131 1.346-3.004 2.563v0l-0.042 0.058c1.38 0.565 2.609 0.813 3.686 0.743 1.086-0.071 1.894-0.476 2.424-1.214v0c0.273-0.38 0.386-0.758 0.339-1.134-0.049-0.386-0.252-0.707-0.611-0.964z" fill="#ffffff" data-fill-palette-color="primary"></path><path d="M138.655 264.607c0.548 0.126 0.921 0.337 1.117 0.633 0.195 0.302 0.248 0.645 0.16 1.028v0c-0.143 0.621-0.454 1.127-0.934 1.518-0.481 0.397-1.12 0.514-1.918 0.351v0c-1.896-0.409-3.564-0.942-5.006-1.601v0c-2.493 3.183-5.191 5.682-8.092 7.498-2.908 1.814-5.509 2.457-7.802 1.93v0c-2.108-0.485-3.432-1.97-3.974-4.453-0.535-2.482-0.442-5.619 0.278-9.412v0c-2.4 3.838-4.737 6.566-7.009 8.186-2.279 1.618-4.436 2.193-6.471 1.724v0c-2.299-0.529-3.708-2.36-4.225-5.491-0.511-3.13-0.209-7.114 0.904-11.95v0c0.811-3.522 2.012-7.319 3.604-11.392v0c0.442-1.164 0.938-1.927 1.487-2.287 0.551-0.367 1.305-0.441 2.263-0.22v0c0.72 0.166 1.243 0.45 1.568 0.851 0.325 0.402 0.391 1.022 0.197 1.862v0c-0.04 0.172-0.141 0.489-0.303 0.953v0c-1.844 4.745-3.163 8.842-3.957 12.291v0c-0.739 3.211-1.036 5.755-0.891 7.632 0.147 1.871 0.689 2.914 1.628 3.13v0c0.839 0.193 2.052-0.453 3.64-1.938 1.595-1.49 3.376-3.832 5.343-7.025 1.972-3.185 3.915-7.079 5.831-11.682v0c0.446-1.059 0.974-1.738 1.585-2.035 0.613-0.304 1.362-0.354 2.247-0.151v0c0.74 0.17 1.248 0.458 1.523 0.862 0.276 0.404 0.339 0.93 0.19 1.578v0c-0.088 0.383-0.183 0.674-0.284 0.874v0c-1.566 3.751-2.799 7.579-3.698 11.484v0c-0.613 2.663-1.012 4.804-1.198 6.424-0.185 1.62-0.115 2.903 0.21 3.847 0.325 0.945 0.98 1.53 1.965 1.757v0c1.15 0.265 2.628-0.31 4.435-1.723 1.813-1.406 3.605-3.268 5.378-5.587v0c-1.25-1.248-2.082-2.681-2.496-4.301-0.407-1.617-0.392-3.374 0.045-5.27v0c0.435-1.89 1.097-3.421 1.986-4.594 0.888-1.166 1.915-1.956 3.082-2.369 1.167-0.413 2.371-0.477 3.613-0.191v0c1.533 0.353 2.622 1.185 3.266 2.495 0.645 1.31 0.746 2.923 0.305 4.839v0c-0.622 2.702-1.898 5.571-3.828 8.605v0c1.166 0.498 2.578 0.938 4.236 1.32zM129.679 255.089c-0.54 2.346-0.184 4.257 1.07 5.736v0c1.549-2.468 2.525-4.578 2.928-6.329v0c0.231-1.004 0.269-1.771 0.112-2.301-0.156-0.53-0.462-0.847-0.918-0.952v0c-0.648-0.149-1.26 0.11-1.838 0.777-0.583 0.659-1.034 1.682-1.354 3.069z" fill="#ffffff" data-fill-palette-color="primary"></path><path d="M145.608 259.928c-1.03 0.043-1.815-0.165-2.357-0.624-0.535-0.459-0.821-1.119-0.856-1.979v0c-0.036-0.86 0.272-1.593 0.925-2.197 0.653-0.604 1.481-0.927 2.484-0.969v0c0.908-0.038 1.655 0.151 2.243 0.567 0.581 0.423 0.888 1.038 0.922 1.845v0c0.041 0.982-0.244 1.775-0.857 2.377-0.612 0.609-1.447 0.936-2.504 0.98zM146.144 279.714c-1.599 0.067-2.784-0.45-3.557-1.55-0.772-1.094-1.197-2.576-1.276-4.446v0c-0.046-1.104 0.036-2.529 0.248-4.276 0.212-1.739 0.507-3.367 0.885-4.882v0c0.191-0.795 0.463-1.349 0.815-1.663 0.354-0.307 0.937-0.477 1.75-0.511v0c1.253-0.053 1.897 0.338 1.932 1.171v0c0.026 0.616-0.148 2.052-0.521 4.307v0c-0.476 2.721-0.694 4.562-0.654 5.524v0c0.031 0.732 0.153 1.29 0.366 1.675 0.213 0.385 0.553 0.567 1.02 0.547v0c0.44-0.018 0.98-0.346 1.618-0.984 0.638-0.644 1.481-1.653 2.53-3.027v0c0.277-0.351 0.602-0.534 0.974-0.55v0c0.318-0.013 0.575 0.122 0.77 0.405 0.195 0.29 0.304 0.693 0.326 1.208v0c0.041 0.982-0.161 1.754-0.605 2.316v0c-2.301 3.069-4.508 4.648-6.622 4.736z" fill="#ffffff" data-fill-palette-color="primary"></path><path d="M172.813 267.297c0.313-0.06 0.587 0.036 0.821 0.287 0.236 0.258 0.403 0.641 0.5 1.147v0c0.185 0.965 0.1 1.759-0.257 2.38v0c-0.793 1.478-1.723 2.744-2.791 3.798-1.074 1.056-2.411 1.737-4.009 2.044v0c-4.92 0.945-8.046-2.044-9.376-8.968v0c-0.205-1.065-0.375-2.148-0.51-3.248v0l-1.419 0.273c-0.719 0.138-1.231 0.098-1.535-0.119-0.304-0.218-0.512-0.616-0.623-1.196v0c-0.26-1.352 0.153-2.132 1.239-2.34v0l2.057-0.395c-0.096-2.729 0.067-5.274 0.491-7.634 0.423-2.36 1.106-4.307 2.046-5.841 0.949-1.529 2.109-2.425 3.481-2.688v0c1.012-0.194 1.893 0.099 2.644 0.88 0.751 0.781 1.256 1.847 1.516 3.199v0c0.719 3.742-0.223 7.299-2.827 10.671v0l4.055-0.779c0.386-0.074 0.682-0.041 0.888 0.099 0.198 0.134 0.342 0.431 0.431 0.89v0c0.32 1.665-0.885 2.759-3.616 3.284v0l-4.414 0.848c0.185 1.214 0.343 2.161 0.473 2.84v0c0.482 2.51 1.117 4.214 1.904 5.113 0.78 0.899 1.813 1.226 3.098 0.979v0c1.032-0.198 1.887-0.687 2.567-1.467 0.679-0.779 1.44-1.903 2.283-3.37v0c0.222-0.388 0.517-0.617 0.883-0.687zM162.615 248.451c-0.36 0.069-0.675 0.599-0.947 1.59-0.272 0.991-0.454 2.328-0.545 4.009-0.091 1.681-0.082 3.526 0.028 5.535v0c1.188-1.506 1.991-3.092 2.409-4.76 0.418-1.668 0.506-3.132 0.265-4.39v0c-0.274-1.425-0.677-2.086-1.21-1.984z" fill="#ffffff" data-fill-palette-color="primary"></path><path d="M196.199 258.811c0.298-0.112 0.584-0.065 0.859 0.143 0.277 0.214 0.506 0.563 0.688 1.045v0c0.347 0.92 0.397 1.716 0.151 2.389v0c-0.593 1.615-1.301 3.024-2.124 4.225-0.822 1.202-1.947 2.072-3.374 2.61v0c-1.174 0.443-2.187 0.437-3.039-0.016-0.852-0.454-1.522-1.325-2.007-2.612v0c-0.242-0.641-0.513-1.85-0.814-3.628v0c-0.25-1.565-0.479-2.624-0.688-3.176v0c-0.139-0.368-0.335-0.504-0.589-0.408v0c-0.298 0.112-0.577 0.66-0.837 1.642-0.262 0.976-0.43 2.202-0.503 3.679-0.076 1.471-0.023 2.973 0.157 4.506v0c0.263 2.002-0.469 3.329-2.194 3.98v0c-0.691 0.261-1.238 0.185-1.641-0.228-0.409-0.411-0.856-1.26-1.342-2.548v0c-0.278-0.736-0.486-1.327-0.626-1.775v0l-1.013-2.77c-1.336-3.54-2.363-7.366-3.081-11.48-0.727-4.117-0.875-7.746-0.444-10.887 0.431-3.141 1.633-5.084 3.605-5.828v0c1.059-0.4 2.087-0.269 3.083 0.392 1.002 0.658 1.776 1.71 2.322 3.156v0c0.876 2.322 1.107 4.988 0.692 8-0.417 3.005-1.525 6.753-3.323 11.244v0c0.38 1.219 0.81 2.463 1.288 3.731v0c0.022-2.247 0.263-4.161 0.725-5.741 0.471-1.576 1.059-2.802 1.765-3.677 0.715-0.871 1.45-1.449 2.205-1.734v0c1.497-0.565 2.527-0.102 3.089 1.389v0c0.34 0.901 0.699 2.62 1.077 5.159v0c0.316 2.163 0.595 3.565 0.837 4.206v0c0.347 0.92 0.854 1.254 1.519 1.003v0c0.463-0.175 0.903-0.66 1.321-1.455 0.421-0.804 0.922-2.04 1.503-3.708v0c0.153-0.42 0.404-0.696 0.753-0.828zM177.906 241.354c-0.412 0.156-0.648 0.922-0.709 2.3-0.06 1.378 0.055 3.161 0.344 5.348 0.289 2.188 0.732 4.525 1.33 7.01v0c0.787-2.217 1.273-4.491 1.458-6.823 0.186-2.331-0.024-4.299-0.629-5.903v0c-0.278-0.736-0.57-1.271-0.877-1.604-0.313-0.331-0.619-0.44-0.917-0.328z" fill="#ffffff" data-fill-palette-color="primary"></path><path d="M233.952 230.525c0.24-0.21 0.525-0.265 0.855-0.166 0.334 0.104 0.671 0.35 1.01 0.738v0c0.629 0.72 0.955 1.448 0.978 2.184v0c0.044 2.141-0.201 3.886-0.734 5.234-0.533 1.348-1.485 2.622-2.858 3.823v0c-0.96 0.839-1.953 1.495-2.979 1.97-1.021 0.47-2.324 0.973-3.907 1.511v0c-1.463 0.459-2.814 0.969-4.053 1.53v0c0.56 2.546-0.105 4.644-1.993 6.295v0c-1.036 0.906-2.068 1.394-3.097 1.464-1.038 0.07-1.88-0.266-2.527-1.005v0c-0.79-0.903-1.012-2.038-0.666-3.404 0.341-1.361 1.234-2.673 2.679-3.936v0l0.36-0.314-6.564-8.513c-1.503-1.946-2.503-3.765-3-5.456-0.502-1.687-0.631-3.384-0.386-5.093v0c0.2-1.481 0.679-2.89 1.437-4.228 0.762-1.333 1.753-2.532 2.973-3.599v0c2.001-1.749 3.99-2.574 5.968-2.475 1.978 0.099 3.694 0.981 5.149 2.645v0c0.986 1.128 1.581 2.216 1.785 3.262 0.199 1.051-0.065 1.894-0.79 2.528v0c-0.516 0.451-1.031 0.68-1.545 0.689-0.515 0.009-0.973-0.217-1.375-0.676v0c-0.147-0.168-0.379-0.506-0.696-1.013v0c-0.338-0.614-0.686-1.125-1.043-1.533v0c-0.678-0.776-1.443-1.192-2.294-1.25-0.846-0.062-1.734 0.314-2.664 1.126v0c-1.628 1.424-2.42 3.057-2.375 4.901 0.04 1.838 0.935 4 2.685 6.486v0l4.874 6.857c0.685 0.969 1.236 1.842 1.655 2.62v0c1.358-0.836 3.12-1.809 5.284-2.918v0c1.264-0.646 2.22-1.153 2.87-1.523 0.655-0.374 1.196-0.749 1.625-1.123v0c1.072-0.937 1.832-1.922 2.281-2.954 0.454-1.036 0.675-2.252 0.663-3.645v0c-0.004-0.447 0.135-0.793 0.415-1.039z" fill="#ffffff" data-fill-palette-color="primary"></path><path d="M247.442 208.086c0.187-0.258 0.46-0.362 0.817-0.312 0.361 0.045 0.742 0.212 1.143 0.503v0c0.955 0.693 1.311 1.396 1.07 2.109v0c-0.447 1.493-1.161 2.978-2.14 4.454v0c1.393 1.589 2.187 3.306 2.383 5.148 0.195 1.843-0.219 3.469-1.242 4.879v0c-0.868 1.196-1.897 2.007-3.087 2.434-1.19 0.427-2.421 0.513-3.694 0.259-1.269-0.26-2.461-0.794-3.575-1.602v0c-1.514-1.099-2.652-2.365-3.414-3.798-0.767-1.436-1.114-2.903-1.04-4.4 0.068-1.501 0.547-2.866 1.439-4.095v0c1.099-1.514 2.505-2.354 4.217-2.519 1.721-0.166 3.405 0.226 5.051 1.179v0c0.617-0.977 1.225-2.236 1.825-3.778v0c0.077-0.187 0.159-0.341 0.247-0.461zM246.486 222.334c0.462-0.636 0.605-1.375 0.427-2.216-0.183-0.845-0.702-1.699-1.557-2.563v0c-0.863 0.312-1.754 0.385-2.674 0.221-0.914-0.161-1.749-0.516-2.507-1.066v0c-0.318-0.231-0.615-0.492-0.889-0.784v0l-0.107 0.148c-0.578 0.796-0.673 1.736-0.288 2.82 0.386 1.084 1.273 2.13 2.661 3.139v0c1.097 0.797 2.089 1.19 2.976 1.18 0.887-0.01 1.539-0.303 1.958-0.879z" fill="#ffffff" data-fill-palette-color="primary"></path><path d="M257.36 188.147c0.008-0.079 0.05-0.198 0.127-0.357v0c0.159-0.33 0.394-0.529 0.705-0.597 0.305-0.071 0.647-0.016 1.026 0.166v0c0.684 0.329 1.154 0.721 1.409 1.175 0.265 0.451 0.357 0.985 0.279 1.602v0c-0.161 1.179-0.518 2.343-1.071 3.491v0c-0.471 0.977-1.044 1.834-1.722 2.569v0c0.73 1.141 1.461 2.366 2.193 3.674v0c0.838 1.495 1.335 2.674 1.491 3.539 0.156 0.865 0.035 1.71-0.362 2.535v0c-0.435 0.904-1.132 1.445-2.091 1.623-0.962 0.184-2.237-0.027-3.826-0.634v0c-3.227-1.222-6.004-2.393-8.331-3.513v0l-1.164-0.561c-0.721-0.377-1.136-0.821-1.244-1.332-0.105-0.517 0.024-1.151 0.385-1.902v0c0.279-0.58 0.614-0.946 1.003-1.098 0.389-0.151 0.88-0.084 1.472 0.201v0c2.548 1.226 5.934 2.664 10.159 4.314v0c-1.329-2.273-2.42-4.024-3.273-5.255v0c-0.806 0.018-1.652-0.186-2.538-0.612v0c-0.751-0.362-1.402-0.878-1.952-1.549-0.547-0.677-0.902-1.409-1.065-2.195-0.17-0.789-0.078-1.55 0.275-2.283v0c0.309-0.641 0.788-1.05 1.437-1.227 0.643-0.179 1.396-0.062 2.257 0.353v0c0.996 0.479 2.01 1.295 3.043 2.447v0c0.357-0.867 0.727-2.065 1.111-3.597v0z" fill="#ffffff" data-fill-palette-color="primary"></path><path d="M266.028 169.167c0.087-0.307 0.296-0.508 0.626-0.605 0.337-0.095 0.753-0.072 1.249 0.069v0c0.946 0.268 1.616 0.702 2.01 1.3v0c0.815 1.176 1.444 2.686 1.886 4.531 0.447 1.853 0.412 3.69-0.105 5.51v0c-0.705 2.485-1.924 4.222-3.656 5.21-1.739 0.987-3.779 1.148-6.121 0.483v0c-1.631-0.463-3.053-1.236-4.267-2.321-1.208-1.083-2.053-2.352-2.536-3.806-0.484-1.448-0.508-2.942-0.071-4.481v0c0.389-1.37 1.108-2.353 2.159-2.95 1.05-0.597 2.273-0.698 3.669-0.302v0c1.631 0.463 2.863 1.447 3.698 2.952 0.843 1.501 1.211 3.744 1.103 6.73v0c1.258-0.284 2.122-1.255 2.592-2.912v0c0.302-1.063 0.27-2.38-0.096-3.949-0.357-1.574-0.998-3.028-1.923-4.362v0c-0.247-0.373-0.319-0.739-0.217-1.097zM258.344 176.649c-0.248 0.874 0.052 1.755 0.899 2.644 0.845 0.895 1.989 1.548 3.431 1.957v0l0.068 0.019c0.063-1.49-0.12-2.73-0.551-3.719-0.436-0.998-1.091-1.62-1.965-1.869v0c-0.45-0.128-0.844-0.106-1.182 0.067-0.346 0.177-0.579 0.477-0.7 0.901z" fill="#ffffff" data-fill-palette-color="primary"></path><path d="M8.52 142.241c0-1.99 1.613-3.604 3.604-3.603 1.99 0 3.604 1.613 3.604 3.603 0 1.99-1.613 3.604-3.604 3.604-1.99 0-3.604-1.613-3.604-3.604z" fill="#ffffff" data-fill-palette-color="primary"></path><path d="M264.556 142.241c0-1.99 1.613-3.604 3.604-3.603 1.99 0 3.604 1.613 3.604 3.603 0 1.99-1.613 3.604-3.604 3.604-1.99 0-3.604-1.613-3.604-3.604z" fill="#ffffff" data-fill-palette-color="primary"></path></g></svg></g></svg></g></svg></g></svg></g><defs></defs></svg><rect width="279.72" height="279.72" fill="none" stroke="none" visibility="hidden"></rect></g></svg></g></svg>